<svg width="41" height="55" viewBox="0 0 41 55" fill="none" xmlns="http://www.w3.org/2000/svg">
<path d="M40.5526 51.4552L40.5525 2.70515C40.551 2.21158 40.4149 1.72778 40.1588 1.30582C39.9028 0.88386 39.5365 0.539725 39.0994 0.310454C38.6623 0.0811827 38.1709 -0.0245416 37.6782 0.00466373C37.1855 0.0338691 36.7101 0.196894 36.3032 0.476191L1.09484 24.8512C-0.364949 25.8614 -0.364949 28.2935 1.09484 29.3064L36.3032 53.6814C36.7093 53.9635 37.1849 54.129 37.6785 54.1598C38.172 54.1906 38.6645 54.0855 39.1025 53.856C39.5405 53.6266 39.9073 53.2814 40.1629 52.8582C40.4186 52.4349 40.5533 51.9496 40.5526 51.4552Z" fill="#5D3D30"/>
</svg>
