<svg width="41" height="55" viewBox="0 0 41 55" fill="none" xmlns="http://www.w3.org/2000/svg">
<path d="M-6.10028e-05 2.70989L-6.04215e-05 51.4599C0.00148835 51.9535 0.13762 52.4373 0.393674 52.8592C0.649731 53.2812 1.01601 53.6253 1.4531 53.8546C1.89019 54.0839 2.38154 54.1896 2.87425 54.1604C3.36696 54.1312 3.84237 53.9681 4.24932 53.6888L39.4576 29.3138C40.9174 28.3036 40.9174 25.8716 39.4576 24.8586L4.24932 0.483638C3.84322 0.201497 3.36757 0.0360426 2.87404 0.0052517C2.38051 -0.0255392 1.88798 0.0795107 1.44996 0.308988C1.01195 0.538465 0.645191 0.883593 0.389549 1.30687C0.133911 1.73015 -0.000839207 2.2154 -6.10028e-05 2.70989Z" fill="#5D3D30"/>
</svg>
