<svg width="92" height="92" viewBox="0 0 92 92" fill="none" xmlns="http://www.w3.org/2000/svg">
<path d="M90 46C90 70.3005 70.3005 90 46 90C21.6995 90 2 70.3005 2 46C2 21.6995 21.6995 2 46 2C70.3005 2 90 21.6995 90 46Z" stroke="black" stroke-width="4" stroke-dasharray="13 11"/>
<path d="M45.3856 69.0142C46.1666 69.7953 47.433 69.7953 48.214 69.0142L60.9419 56.2863C61.723 55.5053 61.723 54.2389 60.9419 53.4579C60.1609 52.6768 58.8946 52.6768 58.1135 53.4579L46.7998 64.7716L35.4861 53.4579C34.705 52.6768 33.4387 52.6768 32.6577 53.4579C31.8766 54.2389 31.8766 55.5053 32.6577 56.2863L45.3856 69.0142ZM46.7998 24.4H44.7998V67.6H46.7998H48.7998V24.4H46.7998Z" fill="black"/>
</svg>
