<svg width="67" height="67" viewBox="0 0 67 67" fill="none" xmlns="http://www.w3.org/2000/svg">
<path fill-rule="evenodd" clip-rule="evenodd" d="M42.8851 0.682983C43.3228 1.12086 43.5686 1.71443 43.5686 2.3333C43.5686 2.95217 43.3228 3.54574 42.8851 3.98362C41.5888 5.28312 40.4255 6.65319 39.3951 8.09385L43.1562 11.8522C43.5691 12.2949 43.7938 12.8805 43.7831 13.4855C43.7725 14.0905 43.5272 14.6678 43.099 15.0956C42.6708 15.5235 42.0931 15.7686 41.4876 15.7793C40.8822 15.79 40.2962 15.5654 39.8531 15.1529L36.8991 12.201C36.2426 13.4922 35.6869 14.8062 35.2319 16.143L50.4355 31.3322C50.5444 31.4469 50.6445 31.5698 50.7347 31.6996C52.0212 31.2611 53.2776 30.739 54.4959 30.1365L45.1225 20.7671C44.8929 20.5533 44.7087 20.2954 44.581 20.009C44.4533 19.7225 44.3846 19.4133 44.379 19.0997C44.3735 18.7861 44.4312 18.4746 44.5488 18.1838C44.6663 17.8931 44.8413 17.6289 45.0632 17.4071C45.2851 17.1854 45.5495 17.0106 45.8405 16.8931C46.1315 16.7756 46.4432 16.718 46.757 16.7235C47.0708 16.729 47.3803 16.7977 47.667 16.9253C47.9537 17.0529 48.2117 17.237 48.4256 17.4664L58.6341 27.6641C60.1506 26.6013 61.5903 25.3911 62.9531 24.0334C63.167 23.804 63.425 23.62 63.7117 23.4923C63.9984 23.3647 64.3079 23.296 64.6217 23.2905C64.9355 23.285 65.2472 23.3427 65.5382 23.4601C65.8292 23.5776 66.0936 23.7524 66.3155 23.9742C66.5374 24.1959 66.7124 24.4601 66.8299 24.7509C66.9474 25.0417 67.0052 25.3531 66.9996 25.6667C66.9941 25.9803 66.9254 26.2895 66.7977 26.576C66.6699 26.8625 66.4858 27.1203 66.2562 27.3341C58.0857 35.5016 46.7367 39.3347 36.4784 37.3388C38.8155 47.2251 35.2319 58.3383 27.3045 66.2567C27.0905 66.4862 26.8325 66.6702 26.5458 66.7978C26.2591 66.9255 25.9497 66.9941 25.6359 66.9996C25.3221 67.0052 25.0103 66.9475 24.7193 66.83C24.4283 66.7126 24.164 66.5378 23.942 66.316C23.7201 66.0942 23.5452 65.8301 23.4276 65.5393C23.3101 65.2485 23.2524 64.937 23.2579 64.6234C23.2634 64.3099 23.3321 64.0006 23.4598 63.7142C23.5876 63.4277 23.7718 63.1699 24.0014 62.9561C25.3333 61.6203 26.5411 60.1664 27.6099 58.6123L23.3906 54.3993C23.1675 54.1838 22.9896 53.926 22.8672 53.641C22.7449 53.356 22.6806 53.0496 22.678 52.7395C22.6755 52.4294 22.7347 52.1219 22.8524 51.835C22.97 51.548 23.1437 51.2873 23.3632 51.0682C23.5828 50.849 23.8438 50.6757 24.1311 50.5584C24.4183 50.4411 24.7261 50.3822 25.0364 50.385C25.3467 50.3879 25.6534 50.4524 25.9385 50.575C26.2235 50.6975 26.4813 50.8755 26.6968 51.0987L30.0093 54.4055C30.5889 53.1476 31.0698 51.873 31.4521 50.5818L31.3025 50.4448L16.3045 35.4642C14.9334 35.869 13.581 36.387 12.2473 37.018L21.0691 45.8301C21.5079 46.2678 21.7548 46.8618 21.7554 47.4813C21.756 48.1009 21.5102 48.6954 21.0722 49.1339C20.6342 49.5724 20.0398 49.8191 19.4197 49.8197C18.7997 49.8202 18.2048 49.5747 17.766 49.137L8.06858 39.4437C6.61439 40.4567 5.23498 41.6109 3.93035 42.9062C3.48732 43.3188 2.90134 43.5433 2.29587 43.5327C1.6904 43.522 1.11272 43.2769 0.684521 42.849C0.256324 42.4211 0.0110469 41.8439 0.000364111 41.2389C-0.0103187 40.6339 0.214427 40.0483 0.627252 39.6056C8.55158 31.6841 19.6731 28.1063 29.5668 30.4386C27.5725 20.1879 31.4053 8.84739 39.5789 0.682983C40.0171 0.245647 40.6111 0 41.2305 0C41.8498 0 42.4469 0.245647 42.8851 0.682983ZM45.4373 32.9483L33.9699 21.4832C33.4744 25.1264 33.7424 28.7509 34.8144 32.1076C38.1736 33.1787 41.8007 33.4465 45.4466 32.9514M31.3617 36.4451C32.2934 39.1448 32.6487 42.0499 32.4617 44.9987L21.9167 34.4616C24.8677 34.2748 27.775 34.6297 30.4767 35.5608L31.1373 35.785L31.3617 36.4451Z" fill="#412D24"/>
</svg>
