<svg width="61" height="61" viewBox="0 0 61 61" fill="none" xmlns="http://www.w3.org/2000/svg">
<path d="M58 15.2222C58 21.975 45.6861 27.4444 30.5 27.4444C15.3139 27.4444 3 21.975 3 15.2222M58 15.2222C58 8.46944 45.6861 3 30.5 3C15.3139 3 3 8.46944 3 15.2222M58 15.2222V30.5M3 15.2222V30.5M58 30.5C58 37.2528 45.6861 42.7222 30.5 42.7222C15.3139 42.7222 3 37.2528 3 30.5M58 30.5V45.7778C58 52.5306 45.6861 58 30.5 58C15.3139 58 3 52.5306 3 45.7778V30.5" stroke="#412D24" stroke-width="6" stroke-linecap="round" stroke-linejoin="round"/>
</svg>
