<?xml version="1.0" encoding="UTF-8"?>
<svg width="633" height="694" fill="none" version="1.1" viewBox="0 0 633 694" xmlns="http://www.w3.org/2000/svg">
 <path d="m144 72c48-36 101-75 160-72 59 2.6 99 58 152 86 55 29 136 25 166 79 30 55-17 121-21 184-3.4 58 23 118-0.17 172-24 55-75 93-127 123-52 30-111 56-170 49-58-7.2-97-59-147-89-49-29-118-36-146-86-27-51 2.6-112 7.9-169 4.8-52 0.65-104 22-152 23-50 59-92 103-125zm249 209c-6.2-1.1-12 3.9-13 11l-0.46 2.6c-4.6 26-26 44-49 40l114 20c26 4.5 51-16 57-47 0.76-4.3-1.6-8.4-5.3-9.1zm-57-172c3 7.3 4.1 16 2.6 25l-26 150c-3 17 6.5 34 21 36 15 2.6 29-9.4 32-27l0.46-2.6c2.8-16 16-27 30-25l69 12 17-95c4.6-26-9.7-50-32-54zm-27-4.7c-11-1.9-22 7.1-24 20l-4.1 24c-1.5 8.7 3.2 17 11 18l27 4.7 6.9-39c2.3-13-4.9-25-16-27z" fill="#d3a96f"/>
</svg>
