<?xml version="1.0" encoding="UTF-8"?>
<svg width="697" height="675" fill="none" version="1.1" viewBox="0 0 697 675" xmlns="http://www.w3.org/2000/svg">
 <path d="m330 12c72-13 151-22 215 14 67 38 111 109 134 183 22 73 30 158-9.8 223-37 62-127 59-185 101-58 42-82 141-153 142-71 0.61-99-95-155-139-53-42-136-49-163-110-27-63-0.29-136 29-198 26-57 75-96 125-133 51-38 103-71 165-83zm55 399c-8-14-26-19-39-11l-121 70c-3.3 1.9-6.1 4.4-8.4 7.4-2.3 3-4 6.4-5 10-0.98 3.7-1.2 7.5-0.72 11 0.5 3.8 1.7 7.4 3.6 11l4.1 7.1c0.91 1.6 2.4 2.7 4.2 3.2 1.8 0.47 3.6 0.23 5.2-0.68l159-92c3.3-1.9 4.4-6.1 2.5-9.4zm-198 8 26 45 19-11-26-45zm38-22 26 45 19-11-26-45zm38-22 26 45 19-11-26-45zm-50-79c-2.6-0.32-5.3 0.23-7.6 1.6-2.3 1.3-4.1 3.4-5.2 5.8l-43 100c-3.6 8.5 5.6 17 14 12l154-89c8-4.6 5.5-17-3.7-18zm88 57 26 45 19-11-26-45zm-79-27c2.5-1.5 5.5-1.8 8.3-1.1 2.8 0.76 5.2 2.6 6.7 5.1 1.5 2.5 1.9 5.5 1.1 8.3s-2.6 5.2-5.1 6.7c-2.5 1.5-5.5 1.8-8.3 1.1-2.8-0.76-5.2-2.6-6.7-5.1-1.5-2.5-1.9-5.5-1.1-8.3 0.75-2.8 2.6-5.2 5.1-6.7z" fill="#b3b3b3"/>
</svg>
