<svg width="77" height="48" viewBox="0 0 77 48" fill="none" xmlns="http://www.w3.org/2000/svg">
<path d="M74.0567 16.9695L45.6093 45.0897C43.7236 46.9532 41.1664 48 38.5 48C35.8336 48 33.2764 46.9532 31.3907 45.0897L2.94331 16.9695C2.0097 16.046 1.26926 14.9497 0.764243 13.7434C0.259231 12.537 -0.000465885 11.2441 -4.34424e-07 9.93846C0.000465016 8.63286 0.261093 7.34014 0.766968 6.1341C1.27284 4.92806 2.01408 3.83232 2.94835 2.90944C3.88261 1.98657 4.99162 1.25464 6.21205 0.755439C7.43248 0.256235 8.74043 -0.000463881 10.0612 -2.304e-06C11.382 0.000459273 12.6898 0.258073 13.9098 0.758131C15.1299 1.25819 16.2384 1.99089 17.172 2.91442L38.5 23.9971L59.828 2.91442C61.7135 1.04928 64.2713 0.000932091 66.9388 1.82198e-07C69.6062 -0.000931726 72.1648 1.04562 74.0517 2.90945C75.9385 4.77327 76.9991 7.30168 77 9.93846C77.0009 12.5752 75.9422 15.1044 74.0567 16.9695Z" fill="#634436"/>
</svg>
