<svg width="309" height="292" viewBox="0 0 309 292" fill="none" xmlns="http://www.w3.org/2000/svg">
<path fill-rule="evenodd" clip-rule="evenodd" d="M152.337 0.138033C158.937 0.348033 168.387 1.21803 173.337 2.07803C178.287 2.92803 186.837 5.12803 192.337 6.95803C197.837 8.78803 205.717 11.988 209.837 14.058C213.967 16.138 221.137 20.358 225.787 23.438C229.918 26.1742 234.925 29.889 240.71 35.0311C241.945 36.1291 242.025 38.0243 240.91 39.2438L234.237 46.538C229.762 51.4243 223.76 57.9254 215.593 66.6611C214.583 67.7413 212.936 67.9241 211.714 67.0917L205.087 62.578C200.277 59.308 192.737 55.058 188.337 53.148C183.937 51.238 176.507 48.638 171.837 47.378C164.717 45.448 160.907 45.078 148.337 45.098C136.247 45.118 131.497 45.558 123.837 47.398C118.607 48.648 114.307 49.528 114.277 49.348C114.237 49.178 113.437 45.668 112.497 41.538C111.557 37.418 109.517 31.788 107.967 29.038C106.417 26.288 103.167 22.378 100.747 20.358C98.3174 18.328 94.5374 15.918 92.3374 14.998C88.5174 13.408 88.4274 13.268 90.3374 11.928C91.4374 11.158 97.2874 8.95803 103.337 7.04803C109.387 5.14803 118.177 2.93803 122.877 2.15803C127.577 1.37803 133.427 0.518033 135.877 0.238033C138.327 -0.0319673 145.737 -0.0819673 152.337 0.138033ZM77.3374 21.618C79.5374 21.558 83.5874 22.168 86.3374 22.958C89.9574 24.008 92.5074 25.658 95.5874 28.968C97.9274 31.478 100.507 35.108 101.337 37.038C102.107 38.8267 103.219 42.8229 104.923 51.4464C105.173 52.716 104.574 54.0038 103.444 54.6342L100.837 56.088C98.3574 57.468 96.1074 58.588 95.8374 58.588C95.5674 58.578 94.9974 56.428 94.5774 53.808C94.1574 51.178 93.1574 47.008 92.3474 44.538C91.5374 42.068 89.2574 38.468 87.2874 36.538C84.4474 33.778 82.6974 32.948 79.0174 32.628C75.5074 32.318 73.3974 32.758 70.5874 34.378C67.9774 35.878 66.0774 38.128 64.3374 41.788C62.9674 44.678 61.0674 50.638 60.1174 55.038C58.5574 62.248 58.3874 71.638 58.3074 150.538C58.2574 215.258 57.9074 240.118 56.9874 246.038C56.2974 250.438 54.8574 256.848 53.7874 260.288C52.7174 263.728 50.7674 268.228 49.4474 270.288C48.1374 272.348 45.7774 275.258 44.1974 276.738C42.6274 278.228 39.3174 280.148 36.8374 281.008C34.3574 281.878 30.4274 282.568 28.0874 282.558C25.7474 282.548 21.4774 281.668 18.5874 280.618C15.1174 279.348 11.9774 277.198 9.33742 274.288C6.99742 271.708 4.59743 267.628 3.56743 264.458C2.59743 261.478 1.79742 258.358 1.79742 257.538C1.80409 256.538 3.31076 255.788 6.31743 255.288C8.80743 254.878 11.2874 254.768 11.8374 255.038C12.3874 255.308 12.8474 256.548 12.8574 257.788C12.8674 259.028 13.9974 261.948 15.3574 264.288C16.7174 266.628 19.2974 269.278 21.0874 270.188C22.8774 271.098 26.1374 271.838 28.3374 271.828C30.5374 271.808 33.6374 270.958 35.2174 269.918C36.8074 268.888 39.1474 266.238 40.4174 264.038C41.6974 261.838 43.5074 257.108 44.4574 253.538C45.9874 247.718 46.2374 237.368 46.8274 155.038C47.3974 74.938 47.6974 61.908 49.1574 54.288C50.0874 49.478 51.7174 43.178 52.7974 40.288C53.8774 37.398 56.4674 33.068 58.5474 30.648C60.6374 28.238 63.5974 25.578 65.1474 24.748C66.6874 23.918 69.1574 22.888 70.6474 22.468C72.1274 22.058 75.1374 21.668 77.3374 21.618ZM38.9274 47.538C39.3374 47.538 39.4074 48.548 39.0774 49.788C38.7574 51.028 38.2274 94.418 37.9174 146.208C37.5974 197.998 36.9974 240.638 36.5874 240.958C36.1774 241.278 33.4374 238.498 30.4974 234.788C27.5574 231.078 23.7874 226.018 22.1274 223.538C20.4574 221.058 17.0174 214.878 14.4674 209.788C11.9174 204.698 8.66742 197.048 7.23742 192.788C5.79742 188.528 3.74742 181.218 2.67742 176.538C1.33742 170.728 0.547419 162.658 0.177419 151.038C-0.222581 138.238 0.0274235 131.688 1.19742 124.538C2.05742 119.308 3.92742 110.988 5.35742 106.038C6.78742 101.088 9.72743 92.988 11.8874 88.038C14.0374 83.088 18.3974 74.898 21.5774 69.848C24.7474 64.788 29.7774 57.698 32.7574 54.098C35.7374 50.488 38.5174 47.538 38.9274 47.538ZM150.833 78.5369C150.836 76.8805 152.18 75.5393 153.836 75.5408L181.699 75.5665C182.72 75.5675 183.671 76.0877 184.222 76.9474L192.787 90.308C197.977 98.408 207.177 112.688 213.217 122.038C218.1 129.609 223.028 137.14 226.845 142.742C228.033 144.486 230.597 144.454 231.766 142.698L250.337 114.778C261.04 98.683 270.806 83.8243 274.959 77.0041C275.512 76.0956 276.491 75.538 277.554 75.538H305.837C307.494 75.538 308.837 76.8812 308.837 78.538V245.538C308.837 247.195 307.494 248.538 305.837 248.538H267.84C266.182 248.538 264.838 247.194 264.84 245.536L264.902 156.176C264.904 153.518 261.705 152.171 259.805 154.029L252.127 161.538C243.067 170.398 237.437 175.038 232.837 177.458C227.997 179.998 224.677 180.998 219.837 181.358C215.617 181.668 211.757 181.318 208.837 180.358C206.357 179.558 202.317 177.528 199.837 175.868C197.357 174.198 193.057 170.628 190.277 167.938C187.487 165.238 180.707 156.968 175.197 149.538C169.687 142.108 163.417 134.438 161.257 132.478C159.097 130.518 155.757 128.358 153.837 127.668C151.277 126.768 149.257 126.708 146.337 127.458C144.137 128.018 140.947 129.738 139.257 131.258C137.557 132.788 133.527 138.088 130.287 143.038C127.047 147.988 121.877 157.668 118.787 164.538C115.697 171.418 111.207 182.438 108.797 189.038C106.397 195.638 102.307 208.018 99.7274 216.538C97.1374 225.058 95.3174 232.468 95.6774 232.998C96.0374 233.528 100.167 235.738 104.837 237.898C109.507 240.058 117.607 242.958 122.837 244.348C130.907 246.488 134.517 246.868 146.837 246.868C159.297 246.868 162.747 246.498 171.337 244.228C176.987 242.748 185.687 239.418 191.337 236.568C196.837 233.798 204.037 229.508 207.337 227.028C210.637 224.558 213.567 222.518 213.837 222.508C214.107 222.508 220.437 229.148 227.887 237.268C235.347 245.388 241.757 252.598 242.137 253.288C242.567 254.048 241.217 255.998 238.687 258.288C236.397 260.348 231.787 263.998 228.437 266.398C225.077 268.808 216.937 273.388 210.337 276.588C203.737 279.788 194.957 283.518 190.837 284.888C186.707 286.248 179.507 288.188 174.837 289.198C168.207 290.638 162.047 291.038 146.837 291.018C131.607 291.008 125.477 290.598 118.837 289.148C114.167 288.128 106.957 286.218 102.837 284.898C98.7074 283.578 89.4874 279.598 82.3374 276.058C75.8168 272.839 69.1881 269.096 64.3399 265.177C63.4909 264.491 63.133 263.376 63.3675 262.31L64.9674 255.038C66.2574 249.158 67.1274 240.498 67.4674 230.038C67.7574 221.238 68.1774 213.478 68.4074 212.788C68.6674 212.048 71.8774 214.368 76.3374 218.538C80.4674 222.388 84.2874 225.538 84.8374 225.538C85.3874 225.538 87.4574 220.248 89.4274 213.788C91.4074 207.328 95.9474 193.938 99.5174 184.038C103.087 174.138 108.647 160.638 111.857 154.038C115.077 147.438 119.537 139.228 121.777 135.788C124.007 132.348 127.747 127.618 130.087 125.268C132.427 122.918 136.477 119.988 139.087 118.768C142.287 117.268 145.717 116.538 149.587 116.548C153.527 116.558 156.917 117.298 160.337 118.908C163.277 120.298 167.827 123.898 171.387 127.648C174.717 131.168 180.757 138.538 184.807 144.038C188.867 149.538 194.917 156.908 198.257 160.428C201.597 163.938 206.137 167.638 208.337 168.648C210.537 169.668 214.587 170.498 217.337 170.498C220.087 170.498 224.137 169.678 226.337 168.678C228.537 167.678 233.037 164.618 236.337 161.868C239.443 159.289 245.012 153.672 255.343 141.749C256.441 140.482 256.281 138.56 254.993 137.488L253.837 136.528C251.917 134.928 250.107 133.578 249.837 133.528C249.567 133.488 248.007 135.158 246.387 137.238C244.767 139.328 240.487 144.128 236.887 147.898C233.287 151.668 228.537 155.998 226.337 157.518C224.137 159.038 220.877 160.558 219.087 160.908C216.837 161.348 214.677 160.948 212.087 159.618C210.027 158.568 206.257 155.528 203.717 152.868C201.177 150.208 194.627 141.968 189.167 134.538C183.707 127.108 177.237 119.308 174.787 117.198C172.337 115.088 167.747 112.048 164.587 110.448C161.858 109.066 158.204 107.647 153.244 106.538C151.832 106.223 150.799 104.988 150.801 103.542L150.833 78.5369ZM151.837 137.538C152.387 137.538 154.757 139.448 157.087 141.788C159.427 144.128 164.347 150.318 168.027 155.538C171.707 160.768 177.167 167.738 180.167 171.038C182.962 174.122 186.891 177.861 192.576 182.132C193.34 182.706 193.798 183.602 193.799 184.558L193.836 222.682C193.837 223.819 193.195 224.859 192.177 225.368L186.837 228.038C182.987 229.968 176.127 232.608 171.587 233.918C167.591 235.074 162.038 236.261 154.132 237.183C152.37 237.389 150.837 236 150.837 234.226V187.538C150.837 154.868 151.187 137.538 151.837 137.538Z" fill="black"/>
</svg>
