<?xml version="1.0" encoding="UTF-8"?>
<!-- Created with Inkscape (http://www.inkscape.org/) -->
<svg width="320" height="320" version="1.1" viewBox="0 0 85 85" xmlns="http://www.w3.org/2000/svg">
 <g transform="translate(-69 8.1)">
  <rect x="69" y="-8.1" width="85" height="85" rx="13" ry="13" fill-rule="evenodd" stroke-linecap="round" stroke-linejoin="round" stroke-width="4.9"/>
  <g transform="translate(3.9 3.8)" fill="#fff">
   <path d="m102 55c-3.3-0.2-6.4-0.89-9.2-2.1-1-0.44-2.6-1.3-3.5-1.9-2.4-1.6-4.4-3.5-6-5.8-0.63-0.91-1.5-2.5-2-3.5-1.3-2.8-2-5.8-2.2-9.3-0.065-1.1-0.065-2.9 5e-3 -4 0.14-2.2 0.5-4.2 1.1-6.1 0.33-1.1 1-2.7 1.5-3.7 0.84-1.7 1.9-3.2 3-4.6 0.71-0.84 2-2.1 2.8-2.8 1.4-1.2 3-2.2 4.6-3 0.99-0.48 2.7-1.1 3.7-1.5 2-0.6 4-0.96 6.2-1.1 1.1-0.071 2.9-0.069 4-0.018 2.2 0.1 4.3 0.39 6 0.85 1.1 0.28 2.8 0.9 3.8 1.4 1.4 0.63 2.6 1.4 3.9 2.2 0.9 0.64 1.1 2 0.54 2.9l-3.5 5.8c-0.57 0.94-1.7 1-2.5 0.39-0.45-0.33-0.92-0.63-1.4-0.89-0.97-0.52-2.7-1.1-3.7-1.4-0.71-0.16-1.5-0.28-2.2-0.36-1.1-0.11-2.9-0.11-4 9.4e-5 -0.7 0.069-1.4 0.18-2 0.32-1.1 0.24-2.8 0.86-3.7 1.4-0.36 0.2-0.71 0.41-1 0.64-0.91 0.63-2.2 1.9-2.8 2.8-0.22 0.32-0.43 0.65-0.62 0.99-0.54 0.96-1.2 2.7-1.4 3.7-0.13 0.57-0.22 1.2-0.28 1.8-0.12 1.1-0.12 2.9-0.0052 4 0.13 1.3 0.39 2.5 0.78 3.6 0.37 1 1.2 2.6 1.9 3.5 0.61 0.76 1.3 1.4 2.1 2 0.88 0.66 2.5 1.5 3.5 1.8 1.2 0.39 2.4 0.64 3.8 0.77 1.1 0.1 2.9 0.098 4-0.0059 0.79-0.075 1.6-0.19 2.4-0.36 1.1-0.23 2.8-0.75 3.8-1.2 0.84-0.37 1.7-0.8 2.4-1.3 0.93-0.59 2.1-0.36 2.6 0.61l3.2 5.9c0.53 0.97 0.25 2.3-0.68 2.9-1.3 0.85-2.8 1.6-4.4 2.2-1 0.42-2.7 0.99-3.8 1.3-2 0.51-4.3 0.82-6.7 0.92-1.1 0.048-2.9 0.05-4-0.015z" stroke-width=".26"/>
   <g fill-rule="evenodd">
    <rect transform="rotate(-23)" x="79" y="87" width="13" height="13" rx="3.2" ry="3.2"/>
    <rect transform="rotate(202)" x="-115" y="-19" width="13" height="13" rx="3.2" ry="3.2"/>
    <rect transform="rotate(247)" x="-75" y="54" width="13" height="13" rx="3.2" ry="3.2"/>
    <rect transform="rotate(-68)" x="5.6" y="77" width="13" height="13" rx="3.2" ry="3.2"/>
    <rect transform="rotate(-23)" x="79" y="37" width="13" height="13" rx="3.2" ry="3.2"/>
    <rect transform="rotate(202)" x="-115" y="30" width="13" height="13" rx="3.2" ry="3.2"/>
   </g>
   <g transform="translate(3.4)" fill-rule="evenodd" stroke-linecap="round" stroke-linejoin="round">
    <rect x="121" y="39" width="17" height="6.4" rx=".53" ry=".79" stroke-width="2.6"/>
    <rect x="102" y="27" width="32" height="6.4" rx=".99" ry=".79" stroke-width="3.5"/>
    <rect x="121" y="16" width="17" height="6.4" rx=".53" ry=".79" stroke-width="2.6"/>
   </g>
  </g>
 </g>
</svg>
