<svg width="132" height="132" viewBox="0 0 132 132" fill="none" xmlns="http://www.w3.org/2000/svg">
<path d="M63.3645 16.125C63.3645 15.031 62.9299 13.9818 62.1563 13.2082C61.3827 12.4346 60.3335 12 59.2395 12C58.1455 12 57.0963 12.4346 56.3227 13.2082C55.5491 13.9818 55.1145 15.031 55.1145 16.125V27.004C55.1145 28.098 55.5491 29.1472 56.3227 29.9208C57.0963 30.6944 58.1455 31.129 59.2395 31.129C60.3335 31.129 61.3827 30.6944 62.1563 29.9208C62.9299 29.1472 63.3645 28.098 63.3645 27.004V16.125ZM32.5315 26.8225C31.7576 26.0661 30.7175 25.644 29.6353 25.6474C28.5531 25.6508 27.5156 26.0792 26.7465 26.8405C25.9773 27.6017 25.5381 28.6347 25.5235 29.7168C25.5089 30.7988 25.9201 31.8433 26.6685 32.625L34.7535 40.7815C35.1251 41.2018 35.5786 41.5418 36.0862 41.7809C36.5938 42.0199 37.1447 42.1529 37.7055 42.1716C38.2662 42.1904 38.8248 42.0947 39.3473 41.8901C39.8697 41.6856 40.3449 41.3767 40.7439 40.9823C41.1428 40.5878 41.4571 40.1161 41.6675 39.596C41.8779 39.076 41.98 38.5184 41.9676 37.9575C41.9552 37.3966 41.8285 36.8442 41.5952 36.3339C41.3619 35.8237 41.027 35.3664 40.611 34.99L32.5315 26.8225ZM91.8105 32.625C92.5358 31.8397 92.928 30.8034 92.9042 29.7346C92.8805 28.6658 92.4428 27.648 91.6833 26.8957C90.9238 26.1433 89.9019 25.7152 88.8329 25.7015C87.764 25.6879 86.7315 26.0898 85.953 26.8225L77.868 34.9845C77.4647 35.3641 77.142 35.821 76.9191 36.328C76.6962 36.835 76.5777 37.3817 76.5706 37.9355C76.5635 38.4893 76.6681 39.0389 76.8779 39.5514C77.0878 40.064 77.3988 40.529 77.7922 40.9187C78.1857 41.3085 78.6536 41.6151 79.1681 41.8201C79.6826 42.0251 80.2331 42.1245 80.7868 42.1122C81.3405 42.0999 81.8861 41.9762 82.391 41.7485C82.8959 41.5209 83.3497 41.1939 83.7255 40.787L91.8105 32.625ZM64.525 55.153C58.8875 52.931 53.558 58.5465 55.67 64.008L75.3655 114.883C77.6205 120.702 85.821 120.707 88.076 114.883L95.633 95.3965L114.927 87.779C120.691 85.502 120.691 77.3125 114.927 75.0355L64.525 55.153ZM26.905 55.5215H16.125C15.031 55.5215 13.9818 55.9561 13.2082 56.7297C12.4346 57.5033 12 58.5525 12 59.6465C12 60.7405 12.4346 61.7897 13.2082 62.5633C13.9818 63.3369 15.031 63.7715 16.125 63.7715H26.905C27.999 63.7715 29.0482 63.3369 29.8218 62.5633C30.5954 61.7897 31.03 60.7405 31.03 59.6465C31.03 58.5525 30.5954 57.5033 29.8218 56.7297C29.0482 55.9561 27.999 55.5215 26.905 55.5215ZM40.611 84.3085C41.3598 83.5275 41.7717 82.4835 41.758 81.4016C41.7443 80.3197 41.306 79.2865 40.5377 78.5247C39.7694 77.7629 38.7325 77.3334 37.6506 77.3289C36.5686 77.3244 35.5282 77.7451 34.7535 78.5005L26.6685 86.6625C26.2871 87.0475 25.9853 87.5038 25.7803 88.0054C25.5753 88.507 25.4711 89.0441 25.4737 89.5859C25.4762 90.1278 25.5855 90.6639 25.7952 91.1635C26.0049 91.6632 26.311 92.1166 26.696 92.498C27.081 92.8794 27.5373 93.1812 28.0389 93.3862C28.5405 93.5912 29.0776 93.6954 29.6194 93.6928C30.1613 93.6903 30.6974 93.581 31.197 93.3713C31.6967 93.1616 32.1501 92.8555 32.5315 92.4705L40.611 84.3085Z" fill="black"/>
</svg>
