<svg width="67" height="71" viewBox="0 0 67 71" fill="none" xmlns="http://www.w3.org/2000/svg">
<path d="M35.4996 12.7778C35.5034 11.478 35.2473 10.1906 34.7463 8.99127C34.2453 7.79192 33.5095 6.70487 32.5822 5.79404C31.655 4.88321 30.5549 4.16701 29.3468 3.68754C28.1387 3.20807 26.8469 2.97503 25.5474 3.00212C24.2479 3.0292 22.9669 3.31587 21.7798 3.84526C20.5927 4.37466 19.5235 5.13608 18.635 6.08475C17.7465 7.03343 17.0566 8.1502 16.606 9.36938C16.1554 10.5886 15.9532 11.8855 16.0112 13.184C14.101 13.6752 12.3276 14.5946 10.8254 15.8725C9.32315 17.1505 8.13142 18.7536 7.34046 20.5603C6.5495 22.3671 6.18004 24.3301 6.26008 26.3008C6.34012 28.2715 6.86755 30.1981 7.80242 31.9348C6.15866 33.2702 4.86608 34.987 4.03713 36.9359C3.20817 38.8847 2.86795 41.0066 3.04605 43.1169C3.22415 45.2273 3.91519 47.2621 5.05905 49.0445C6.20291 50.8269 7.76494 52.3028 9.60926 53.3438C9.38151 55.1059 9.51742 56.896 10.0086 58.6035C10.4998 60.311 11.3358 61.8997 12.465 63.2715C13.5943 64.6432 14.9927 65.7689 16.5741 66.579C18.1554 67.3891 19.886 67.8664 21.6591 67.9815C23.4321 68.0966 25.2099 67.8469 26.8827 67.248C28.5554 66.649 30.0876 65.7135 31.3847 64.4992C32.6817 63.2849 33.7161 61.8176 34.4238 60.1879C35.1316 58.5581 35.4977 56.8006 35.4996 55.0239V12.7778Z" stroke="#412D24" stroke-width="6" stroke-linecap="round" stroke-linejoin="round"/>
<path d="M25.7508 38.7753C28.4791 37.8155 30.8615 36.0683 32.5969 33.7545C34.3322 31.4408 35.3424 28.6644 35.4999 25.7765M16.0115 13.1839C16.0757 14.7559 16.5195 16.289 17.3048 17.6523M7.80273 31.9379C8.39723 31.4537 9.0334 31.0231 9.70381 30.651M16.0017 55.0238C13.7621 55.0248 11.5603 54.4472 9.60957 53.3469M35.4999 38.7753H48.4987M35.4999 55.0238H54.9981C56.7218 55.0238 58.375 55.7085 59.5938 56.9274C60.8127 58.1463 61.4975 59.7994 61.4975 61.5232V64.7729M35.4999 22.5268H61.4975M48.4987 22.5268V12.7777C48.4987 11.054 49.1834 9.40082 50.4023 8.18195C51.6212 6.96308 53.2743 6.27832 54.9981 6.27832" stroke="#412D24" stroke-width="6" stroke-linecap="round" stroke-linejoin="round"/>
<path d="M48.4979 40.4001C49.3953 40.4001 50.1227 39.6726 50.1227 38.7752C50.1227 37.8779 49.3953 37.1504 48.4979 37.1504C47.6005 37.1504 46.873 37.8779 46.873 38.7752C46.873 39.6726 47.6005 40.4001 48.4979 40.4001Z" stroke="#412D24" stroke-width="6" stroke-linecap="round" stroke-linejoin="round"/>
<path d="M54.9979 7.90302C55.8953 7.90302 56.6227 7.17555 56.6227 6.27817C56.6227 5.38079 55.8953 4.65332 54.9979 4.65332C54.1005 4.65332 53.373 5.38079 53.373 6.27817C53.373 7.17555 54.1005 7.90302 54.9979 7.90302Z" stroke="#412D24" stroke-width="6" stroke-linecap="round" stroke-linejoin="round"/>
<path d="M61.4969 66.3976C62.3943 66.3976 63.1218 65.6702 63.1218 64.7728C63.1218 63.8754 62.3943 63.1479 61.4969 63.1479C60.5995 63.1479 59.8721 63.8754 59.8721 64.7728C59.8721 65.6702 60.5995 66.3976 61.4969 66.3976Z" stroke="#412D24" stroke-width="6" stroke-linecap="round" stroke-linejoin="round"/>
<path d="M61.4969 24.1516C62.3943 24.1516 63.1218 23.4241 63.1218 22.5267C63.1218 21.6293 62.3943 20.9019 61.4969 20.9019C60.5995 20.9019 59.8721 21.6293 59.8721 22.5267C59.8721 23.4241 60.5995 24.1516 61.4969 24.1516Z" stroke="#412D24" stroke-width="6" stroke-linecap="round" stroke-linejoin="round"/>
</svg>
