<svg width="532" height="375" viewBox="0 0 532 375" fill="none" xmlns="http://www.w3.org/2000/svg">
<path d="M42.9998 219.242L52.4998 232.742L56.4998 248.242L52.4998 258.742L48.4998 264.742L44.4998 273.742L42.9998 284.242L44.4998 293.742L49.4998 300.742L56.4998 306.242L70.9998 309.742L85.4998 311.242L99.4998 313.742L116 325.742L131 339.742L155 353.742L165.5 355.242L178.5 355.242L190.5 352.742L198.5 346.742L209 324.242L212 319.242L219 317.242L225 319.242L230.5 322.742L235.5 328.242L239 333.742L240 341.242C238.166 344.409 234.4 350.842 234 351.242C233.6 351.642 232.166 353.742 231.5 354.742C230.666 355.409 228.9 356.842 228.5 357.242C228.1 357.642 227.666 359.076 227.5 359.742L227.5 363.242L232.5 366.242L278 373.742L294 373.742L306 370.742L314 366.742L319.5 361.742L323.5 343.742L318 286.242L320.5 279.742L332.5 271.742L340 262.242L349 244.242L362.5 233.242L378 238.242L397.5 255.242L415.5 274.242L437 288.742L460 301.242L484 305.742L497 305.742L512 301.242L522.5 296.242L530.5 288.742L521.5 288.742L512 285.242L497 276.242L488.5 268.242L483 256.742L475.5 254.242L477 250.742L475.5 245.242L470.5 246.242L465 246.242L463.5 241.242L467 239.742L470.5 236.242L465 233.242L468 228.742L472 226.242L472 222.242L475.5 218.742L484 217.742L491 218.742L494 213.742L494 208.742L487 207.242L481 208.742L475.5 208.742L469.5 204.742L472 197.242L462.5 186.242L463.5 179.742L438.5 145.742L438.5 129.242L437 119.742L430 103.242L406.5 78.2424L396 69.7424L390.5 68.2424L385.5 73.2424L379 55.2424L376 51.2424L372.5 51.2424L367 50.2424L366 42.7424C359.5 43.7424 346.3 45.7424 345.5 45.7424C344.5 45.7424 338.5 46.7424 338 45.7424C337.5 44.7424 336.5 41.2424 336.5 40.2424C336.5 39.4424 335.166 35.5758 334.5 33.7424L329 33.7424C328.2 33.7424 325.666 35.0758 324.5 35.7424L318 34.7424L310 31.7424L297.5 19.7424L281.5 18.7424L277 20.7424L273 21.7424L270 18.7424L267.5 21.7424C266.333 22.5758 263.7 24.3424 262.5 24.7424C261.3 25.1424 260 27.5758 259.5 28.7424L258.5 31.7424C258.833 32.9091 259.5 35.4424 259.5 36.2424C259.5 37.2424 261.5 39.2424 261.5 40.2424C261.5 41.0424 262.166 42.2424 262.5 42.7424L261.5 46.7424L258.5 46.7424L255 42.7424L249.5 36.2424L243.5 27.7424L238.5 23.7424L230 21.7424L217.5 27.7424L208 38.2424L202 45.2424L196.5 47.7424L190 50.2424L162.5 79.7424L155 80.7424L143 66.7424L139 65.2424L136.5 67.7424L134.5 71.2424L132.5 73.2424L130 71.2424L128.5 68.2424L130 65.2424L131.5 61.7424L131.5 58.7424L111 32.7424L108 28.7424L104.5 26.7424L101.5 28.7424L98.9998 33.7424L99.4998 37.2424L100.5 40.7424L100.5 44.7424L97.4998 54.2424L96.4998 62.7424L98.9998 71.2424L107 80.7424L111 84.7424L111.5 89.7424L105.5 95.2424C103.5 96.4091 99.2998 98.7424 98.4998 98.7424C97.6998 98.7424 94.1664 100.409 92.4998 101.242L89.9998 105.742L89.9998 112.742L92.4998 117.242L92.4998 121.742L90.4998 125.242L84.9998 126.242L76.4998 118.742L68.4998 98.7424L60.9998 87.2424L54.9998 83.2424L45.4998 76.7424L37.9998 73.2424C37.1664 70.9091 35.2998 66.1424 34.4998 65.7424C33.6998 65.3424 31.4998 62.5758 30.4998 61.2424L30.4998 54.2424L30.4998 50.7424L33.9998 48.7424L37.4998 48.2424L41.9998 48.7424L45.4998 50.2424L48.4998 53.2424L53.4998 54.2424L55.9998 52.2424L61.9998 50.2424L65.9998 52.2424L69.4998 56.7424L76.4998 56.7424L76.4998 50.2424L48.4998 19.2424L40.9998 0.742432L16.4998 16.2424L7.99976 26.7424L4.49976 50.2424L7.99976 66.2424L16.4998 78.2424L22.4998 95.2424L25.9998 110.242L28.4998 123.742L28.4998 138.742L33.9998 152.742L42.9998 162.742L48.4998 172.742L48.4998 187.242L40.9998 204.742L42.9998 219.242Z" stroke="#5C5C5C"/>
<path d="M156.901 192.633L152.424 176.74L147.302 178.84L147.389 179.148C148.057 181.519 148.511 183.658 148.75 185.564C148.987 187.46 148.987 189.16 148.751 190.666C148.512 192.161 148.003 193.503 147.226 194.692C146.456 195.867 145.395 196.926 144.042 197.87L140.537 193.397C141.321 192.859 141.924 192.285 142.347 191.676C142.77 191.067 143.026 190.333 143.114 189.472C143.208 188.597 143.14 187.514 142.909 186.224C142.677 184.933 142.295 183.343 141.763 181.454L140.08 175.478L156.809 168.621L162.882 190.182L156.901 192.633ZM143.556 204.116L140.537 193.397L143.672 192.215L145.297 191.068L164.661 183.131L167.776 194.188L162.091 196.519L160.573 191.128L147.723 196.396L149.241 201.786L143.556 204.116Z" fill="#412D24"/>
<path d="M177.29 192.021L173.33 168.999L178.607 167.678L178.884 169.286C179.331 168.494 179.967 167.803 180.794 167.213C181.631 166.619 182.592 166.187 183.679 165.915C185.19 165.537 186.606 165.549 187.927 165.953C189.257 166.344 190.381 167.104 191.298 168.234C192.225 169.351 192.841 170.803 193.149 172.59C193.362 173.831 193.357 175.027 193.135 176.179C192.922 177.329 192.522 178.389 191.933 179.358C191.343 180.318 190.589 181.142 189.671 181.833C188.762 182.51 187.718 182.996 186.539 183.291C185.783 183.48 185.041 183.556 184.311 183.52C183.582 183.483 182.874 183.32 182.187 183.032L183.468 190.474L177.29 192.021ZM184.592 178.186C185.182 178.039 185.687 177.775 186.107 177.396C186.536 177.003 186.843 176.526 187.027 175.965C187.211 175.403 187.244 174.781 187.126 174.098C187.009 173.414 186.768 172.861 186.404 172.437C186.05 172.01 185.612 171.725 185.091 171.581C184.578 171.424 184.032 171.418 183.453 171.563C182.873 171.709 182.369 171.977 181.94 172.37C181.52 172.749 181.212 173.221 181.018 173.785C180.834 174.346 180.801 174.969 180.918 175.652C181.036 176.335 181.271 176.89 181.625 177.317C181.979 177.744 182.413 178.035 182.925 178.192C183.447 178.336 184.002 178.334 184.592 178.186Z" fill="#412D24"/>
<path d="M211.846 178.536C209.992 178.756 208.342 178.581 206.894 178.012C205.447 177.444 204.283 176.546 203.402 175.319C202.532 174.092 202.025 172.595 201.881 170.83C201.776 169.544 201.903 168.343 202.261 167.227C202.629 166.099 203.189 165.099 203.941 164.226C204.704 163.352 205.624 162.636 206.702 162.079C207.79 161.52 209.007 161.161 210.352 161.002C211.856 160.823 213.212 160.931 214.421 161.324C215.64 161.716 216.67 162.345 217.51 163.211C218.35 164.067 218.96 165.122 219.341 166.376C219.72 167.619 219.818 169.013 219.634 170.559L207.717 171.973C207.795 172.404 208.006 172.766 208.351 173.058C208.706 173.348 209.162 173.557 209.718 173.684C210.273 173.801 210.894 173.818 211.583 173.737C212.589 173.617 213.517 173.389 214.366 173.052C215.216 172.715 216.049 172.241 216.865 171.629L219.052 175.62C218.595 176.05 217.96 176.469 217.149 176.876C216.337 177.284 215.462 177.634 214.523 177.928C213.586 178.233 212.693 178.435 211.846 178.536ZM207.792 167.778L213.321 167.122C213.275 166.548 212.993 166.109 212.476 165.805C211.959 165.502 211.309 165.396 210.525 165.489C209.72 165.585 209.062 165.846 208.552 166.271C208.052 166.695 207.798 167.198 207.792 167.778Z" fill="#412D24"/>
<path d="M229.787 176.466L229.847 159.826L239.095 159.875C241.133 159.886 242.699 160.246 243.795 160.956C244.902 161.655 245.453 162.725 245.448 164.165C245.445 165.018 245.213 165.721 244.752 166.273C244.302 166.825 243.703 167.254 242.955 167.559C242.218 167.854 241.412 168.047 240.537 168.139L240.446 166.698C242.163 166.803 243.543 167.264 244.585 168.08C245.638 168.886 246.162 169.971 246.157 171.336C246.153 172.424 245.883 173.356 245.347 174.132C244.811 174.908 244.02 175.501 242.973 175.912C241.937 176.322 240.656 176.523 239.13 176.515L229.787 176.466ZM235.882 172.338L238.314 172.351C238.847 172.354 239.247 172.254 239.515 172.053C239.782 171.841 239.917 171.559 239.918 171.207C239.919 170.887 239.792 170.625 239.537 170.421C239.292 170.217 238.887 170.114 238.322 170.111L235.378 170.095L235.392 166.191L237.92 166.205C238.432 166.207 238.827 166.124 239.105 165.955C239.383 165.775 239.523 165.509 239.524 165.157C239.525 164.805 239.377 164.532 239.079 164.339C238.792 164.135 238.408 164.031 237.928 164.029L235.912 164.018L235.882 172.338Z" fill="#412D24"/>
<path d="M255.856 177.206L257.386 160.637L263.729 161.489L263.202 167.193L268.277 167.875L268.804 162.171L275.147 163.024L273.616 179.594L267.273 178.741L267.818 172.846L262.743 172.164L262.199 178.059L255.856 177.206Z" fill="#412D24"/>
<path d="M283.724 181.765L286.779 165.408L292.647 167.003L291.213 174.678L298.421 168.572L304.01 170.092L300.955 186.449L295.088 184.854L296.545 177.053L289.313 183.284L283.724 181.765Z" fill="#412D24"/>
<path d="M310.95 190.106L315.526 174.108L321.139 176.444L318.992 183.951L326.664 178.744L332.011 180.97L327.435 196.968L321.822 194.631L324.004 187.001L316.297 192.332L310.95 190.106ZM324.297 175.693C322.977 175.143 321.9 174.42 321.066 173.522C320.232 172.624 319.675 171.623 319.396 170.519C319.119 169.406 319.16 168.264 319.517 167.092L324.243 169.06C324.035 169.673 324.034 170.235 324.241 170.746C324.45 171.246 324.835 171.613 325.397 171.847C325.958 172.081 326.449 172.078 326.87 171.84C327.294 171.592 327.58 171.149 327.729 170.511L332.456 172.479C332.144 173.646 331.59 174.563 330.793 175.229C329.999 175.886 329.038 176.261 327.91 176.353C326.791 176.45 325.587 176.23 324.297 175.693Z" fill="#412D24"/>
<path d="M189.459 221.137L179.045 212.07L185.189 199.207L193.03 197.191L186.669 210.11L197.486 219.073L189.459 221.137ZM176.163 224.555L172.637 202.434L178.897 200.825L180.142 208.63L184.295 207.563L185.221 213.377L181.069 214.445L182.424 222.946L176.163 224.555Z" fill="#412D24"/>
<path d="M206.551 217.302L205.554 200.692L211.595 200.005L212.063 207.798L217.54 199.328L223.295 198.673L224.293 215.283L218.252 215.97L217.776 208.049L212.306 216.647L206.551 217.302Z" fill="#412D24"/>
<path d="M237.698 214.766L237.972 203.121L233.62 203.089L233.737 198.099L248.841 198.208L248.723 203.199L244.371 203.167L244.098 214.812L237.698 214.766Z" fill="#412D24"/>
<path d="M262.233 216.43C261.174 216.299 260.228 215.966 259.393 215.433C258.558 214.9 257.918 214.202 257.471 213.341C257.025 212.469 256.861 211.465 256.979 210.33C257.082 209.343 257.409 208.508 257.963 207.825C258.527 207.142 259.304 206.626 260.295 206.276C261.286 205.916 262.484 205.736 263.888 205.739C265.303 205.742 266.913 205.931 268.719 206.305L268.358 210.097C267.654 209.849 266.976 209.668 266.323 209.555C265.671 209.431 265.086 209.385 264.568 209.418C264.05 209.45 263.63 209.57 263.309 209.777C262.988 209.974 262.807 210.274 262.765 210.677C262.72 211.112 262.861 211.457 263.188 211.713C263.516 211.968 263.96 212.131 264.521 212.2C265.029 212.263 265.493 212.235 265.913 212.115C266.343 211.997 266.698 211.777 266.978 211.457C267.259 211.127 267.429 210.68 267.487 210.118L267.837 206.744C267.89 206.235 267.836 205.772 267.676 205.354C267.516 204.926 267.21 204.571 266.757 204.289C266.305 203.997 265.655 203.798 264.808 203.693C263.961 203.588 263.107 203.611 262.244 203.762C261.392 203.914 260.629 204.185 259.956 204.574L258.839 200.148C260.01 199.616 261.252 199.265 262.567 199.095C263.883 198.914 265.166 198.901 266.415 199.056C267.992 199.252 269.374 199.681 270.559 200.344C271.746 200.996 272.638 201.907 273.235 203.078C273.844 204.238 274.059 205.678 273.881 207.397L272.857 217.264L267.459 216.595L267.627 214.971C267.05 215.577 266.297 216.01 265.369 216.271C264.443 216.521 263.397 216.574 262.233 216.43Z" fill="#412D24"/>
<path d="M283.428 219.231L286.604 202.897L292.493 204.408L291.003 212.073L298.289 205.896L303.899 207.336L300.724 223.67L294.835 222.159L296.349 214.369L289.038 220.671L283.428 219.231ZM295.618 203.232C294.234 202.876 293.079 202.316 292.154 201.551C291.229 200.786 290.575 199.882 290.192 198.838C289.811 197.784 289.748 196.657 290.003 195.459L294.962 196.731C294.807 197.362 294.857 197.914 295.112 198.386C295.369 198.848 295.793 199.154 296.381 199.305C296.97 199.456 297.467 199.386 297.871 199.094C298.277 198.791 298.526 198.317 298.619 197.67L303.579 198.943C303.369 200.131 302.892 201.108 302.147 201.873C301.403 202.628 300.465 203.129 299.332 203.377C298.21 203.628 296.972 203.579 295.618 203.232Z" fill="#412D24"/>
</svg>
