<svg width="498" height="416" viewBox="0 0 498 416" fill="none" xmlns="http://www.w3.org/2000/svg">
<path d="M17.323 174.184L30.5673 161.114L42.588 153.498L63.9624 137.897L84.6272 113.2L100.178 99.0422L105.765 94.5665L120.324 90.9575L128.326 92.0649L149.692 80.5871L159.884 78.0608L174.194 77.6043L184.485 85.8711L188.841 90.973L207.743 98.6507L211.485 107.511L257.42 120.336L273.892 130.676L291.347 134.592L296.897 148.67L307.677 154.755L324.647 158.791L343.927 159.678L377.899 151.257L386.012 156.973L393.383 170.084L405.753 170.109L447.963 165.828L460.925 172.402L466.239 183.448L472.013 206.743L466.189 208.187L463.647 206.241L462.187 208.664L464.85 211.094L468.844 214.741L470.416 216.926L467.621 220.195L464.46 224.069L461.187 223.335L457.666 225.754L453.779 228.778L450.51 225.982L447.229 229.371C446.904 230.138 446.157 231.697 445.769 231.793C445.381 231.889 442.538 230.534 441.165 229.844L437.038 231.897L432.425 234.071L427.331 234.303L422.599 235.991L419.558 240.351L414.705 241.554L410.453 245.183L409.105 252.214L396.703 268.682L380.688 272.652L382.625 274.232L386.018 275.452L383.828 279.085L345.68 314.298L346.273 320.848C344.329 322.703 340.368 326.536 340.076 327.02C339.784 327.505 334.048 329.716 331.216 330.762L327.57 334.756L324.529 339.116L320.527 339.593L313.247 341.397L309.36 344.421L311.526 353.157L312.247 356.069L272.327 367.51L217.002 381.224L213.986 373.214L204.541 366.283L203.699 362.886L203.346 357.307L192.084 349.28L191.74 339.578L185.456 328.773L190.333 315.201L181.859 308.029L182.605 298.571L185.285 292.756L181.655 288.504L183.24 284.506L178.399 279.524L177.433 277.703L179.386 271.037L174.056 268.237L170.899 270.05L170.045 272.838L170.161 275.384C170.362 276.193 170.884 277.884 171.368 278.176C171.853 278.468 173.265 279.595 173.911 280.121L174.873 284.004C172.364 285.656 167.175 289.106 166.495 289.687C165.814 290.267 159.171 293.391 155.934 294.88L138.106 295.693L124.662 287.178L119.095 281.346L118.133 277.463C118.376 277.06 118.79 276.373 118.498 276.858C118.206 277.342 119.427 277.143 120.074 276.982L122.497 278.442L125.044 278.326L128.076 278.09L132.327 274.46L138.881 271.805L142.768 268.781L144.593 265.753C144.878 264.824 145.752 263.49 138.769 267.197C131.485 271.063 135.693 269.333 136.098 268.889L129.179 272.15L124.811 273.232L118.021 272.855L108.447 269.562L103.611 262.518L97.061 263.112L91.7226 264.435L90.1587 258.126L91.4985 255.218L89.076 253.758L83.862 253.505L81.2072 246.951L73.326 246.329L63.3833 245.703L59.0237 242.663L58.3101 235.628L63.3 226.664L66.3569 214.058L61.2755 208.106L36.0804 193.746L25.4242 186.085L17.323 174.184Z" stroke="#5C5C5C"/>
<path d="M82.9056 179.513L79.7092 163.313L74.2779 164.385L74.3399 164.699C74.8168 167.116 75.0947 169.268 75.1735 171.155C75.2502 173.032 75.1016 174.676 74.7277 176.087C74.3517 177.488 73.7137 178.69 72.8137 179.694C71.9221 180.685 70.7422 181.51 69.2741 182.17L66.0738 177.191C66.9241 176.817 67.5925 176.375 68.0792 175.866C68.5658 175.357 68.8918 174.694 69.057 173.879C69.2307 173.051 69.2554 171.991 69.1312 170.7C69.0069 169.409 68.7548 167.801 68.3749 165.876L67.1731 159.785L84.9112 156.285L89.2473 178.261L82.9056 179.513ZM68.2294 188.116L66.0738 177.191L69.3888 176.635L71.1544 175.83L91.6865 171.779L93.9103 183.049L87.8825 184.239L86.7985 178.745L73.1732 181.433L74.2572 186.927L68.2294 188.116Z" fill="#412D24"/>
<path d="M101.562 183.184L99.0835 159.956L104.493 159.378L104.666 161.001C105.169 160.283 105.856 159.689 106.729 159.22C107.612 158.751 108.61 158.456 109.724 158.338C111.272 158.172 112.7 158.379 114.006 158.959C115.322 159.526 116.405 160.43 117.256 161.669C118.116 162.897 118.643 164.412 118.835 166.215C118.969 167.467 118.885 168.645 118.585 169.75C118.295 170.853 117.821 171.843 117.164 172.717C116.505 173.581 115.69 174.29 114.72 174.845C113.758 175.387 112.673 175.723 111.464 175.852C110.69 175.934 109.936 175.908 109.203 175.771C108.47 175.635 107.766 175.377 107.093 174.999L107.894 182.508L101.562 183.184ZM109.837 170.555C110.441 170.49 110.968 170.3 111.417 169.984C111.876 169.656 112.216 169.228 112.439 168.7C112.661 168.172 112.736 167.563 112.662 166.874C112.589 166.185 112.382 165.606 112.043 165.138C111.714 164.669 111.291 164.328 110.775 164.115C110.268 163.89 109.718 163.809 109.124 163.872C108.53 163.936 108.004 164.131 107.545 164.459C107.096 164.775 106.755 165.198 106.522 165.727C106.299 166.255 106.225 166.864 106.298 167.553C106.372 168.242 106.573 168.822 106.902 169.291C107.231 169.76 107.649 170.107 108.156 170.332C108.672 170.545 109.232 170.619 109.837 170.555Z" fill="#412D24"/>
<path d="M135.581 174.275C133.715 174.33 132.073 174.01 130.655 173.316C129.236 172.622 128.118 171.625 127.301 170.326C126.494 169.027 126.064 167.492 126.012 165.722C125.973 164.432 126.162 163.247 126.579 162.168C127.005 161.077 127.617 160.131 128.415 159.328C129.224 158.525 130.182 157.894 131.289 157.434C132.406 156.974 133.642 156.724 134.996 156.684C136.51 156.639 137.861 156.866 139.05 157.364C140.249 157.862 141.247 158.58 142.043 159.517C142.839 160.443 143.394 161.547 143.71 162.829C144.025 164.1 144.05 165.497 143.786 167.02L131.791 167.376C131.847 167.812 132.039 168.19 132.369 168.511C132.709 168.832 133.154 169.08 133.704 169.256C134.253 169.421 134.874 169.493 135.567 169.473C136.58 169.443 137.52 169.298 138.387 169.037C139.255 168.777 140.112 168.378 140.961 167.84L142.941 172.008C142.462 172.395 141.806 172.756 140.972 173.09C140.139 173.424 139.246 173.696 138.291 173.906C137.337 174.126 136.434 174.249 135.581 174.275ZM132.084 163.205L137.649 163.04C137.632 162.465 137.373 162.003 136.872 161.655C136.371 161.307 135.726 161.144 134.937 161.168C134.126 161.192 133.455 161.393 132.922 161.772C132.399 162.15 132.12 162.628 132.084 163.205Z" fill="#412D24"/>
<path d="M152.283 173.624L153.017 157L162.256 157.408C164.292 157.498 165.843 157.919 166.909 158.671C167.987 159.412 168.494 160.502 168.43 161.941C168.393 162.793 168.133 163.487 167.65 164.02C167.178 164.555 166.562 164.96 165.802 165.236C165.054 165.502 164.241 165.664 163.363 165.721L163.33 164.278C165.042 164.45 166.402 164.964 167.41 165.82C168.43 166.665 168.91 167.77 168.849 169.134C168.801 170.221 168.494 171.142 167.927 171.896C167.36 172.651 166.545 173.213 165.482 173.582C164.43 173.952 163.142 174.103 161.618 174.036L152.283 173.624ZM158.541 169.736L160.971 169.843C161.503 169.867 161.907 169.783 162.183 169.593C162.459 169.391 162.604 169.115 162.62 168.763C162.634 168.443 162.518 168.177 162.271 167.963C162.035 167.75 161.634 167.631 161.069 167.606L158.128 167.476L158.3 163.576L160.826 163.687C161.337 163.71 161.736 163.642 162.02 163.484C162.305 163.315 162.455 163.054 162.471 162.703C162.487 162.351 162.349 162.073 162.059 161.868C161.781 161.653 161.402 161.534 160.922 161.513L158.908 161.424L158.541 169.736Z" fill="#412D24"/>
<path d="M177.018 175.014L179.023 158.496L185.377 159.267L184.686 164.953L189.769 165.571L190.459 159.884L196.813 160.656L194.807 177.174L188.454 176.403L189.167 170.526L184.085 169.909L183.371 175.786L177.018 175.014Z" fill="#412D24"/>
<path d="M202.229 178.363L209.228 170.553L210.276 174.644C209.093 174.409 208.046 173.989 207.133 173.383C206.23 172.78 205.558 172.032 205.115 171.139C204.675 170.236 204.566 169.225 204.788 168.105C205.033 166.871 205.527 165.865 206.268 165.088C207.01 164.311 207.957 163.787 209.109 163.515C210.261 163.244 211.57 163.254 213.034 163.544L221.509 165.227L218.268 181.549L212.335 180.371L214.729 168.318L212.971 167.969C212.438 167.863 211.983 167.909 211.607 168.106C211.241 168.305 211.012 168.635 210.921 169.095C210.833 169.534 210.898 169.922 211.114 170.259C211.34 170.597 211.678 170.811 212.128 170.901L214.639 171.399L213.835 175.448L212.611 175.205L208.946 179.697L202.229 178.363Z" fill="#412D24"/>
<path d="M225.521 183.209L233.056 175.914L233.811 180.068C232.648 179.75 231.633 179.257 230.765 178.589C229.908 177.923 229.29 177.129 228.912 176.208C228.536 175.276 228.499 174.259 228.8 173.158C229.132 171.944 229.695 170.976 230.49 170.253C231.284 169.53 232.266 169.074 233.435 168.885C234.603 168.696 235.908 168.798 237.348 169.192L245.682 171.47L241.295 187.521L235.461 185.927L238.701 174.073L236.972 173.601C236.448 173.457 235.991 173.471 235.601 173.641C235.222 173.814 234.971 174.126 234.847 174.579C234.729 175.011 234.766 175.403 234.957 175.754C235.159 176.108 235.481 176.345 235.924 176.466L238.393 177.141L237.305 181.123L236.101 180.794L232.127 185.015L225.521 183.209Z" fill="#412D24"/>
<path d="M266.911 196.193L275.656 175.57L281.548 178.069L276.738 189.411L288.589 181.055L294.57 183.591L285.825 204.213L279.933 201.715L284.817 190.196L272.862 198.716L266.911 196.193Z" fill="#412D24"/>
<path d="M294.621 208.443L302.403 193.734L308.06 196.727L305.381 201.79L309.907 204.184L312.586 199.121L318.243 202.114L310.461 216.823L304.804 213.83L307.573 208.597L303.047 206.203L300.279 211.436L294.621 208.443Z" fill="#412D24"/>
<path d="M327.703 227.368L333.981 217.557L330.989 215.642L330.73 216.047C330.126 216.99 329.411 217.881 328.583 218.719C327.756 219.557 326.814 220.246 325.759 220.787C324.704 221.328 323.543 221.629 322.274 221.691C321.006 221.754 319.63 221.481 318.145 220.873L319.66 216.486C320.53 216.827 321.355 216.835 322.133 216.51C322.911 216.185 323.616 215.686 324.248 215.014C324.886 214.334 325.43 213.643 325.878 212.942L328.827 208.333L342.062 216.801L333.094 230.818L327.703 227.368ZM314.469 224.599L319.66 216.486L322.171 218.32L323.223 218.576L338.56 228.389L333.283 236.637L328.377 233.498L330.964 229.455L321.961 223.695L319.374 227.738L314.469 224.599Z" fill="#412D24"/>
<path d="M342.121 237.072L352.215 223.844L357.049 227.532L352.312 233.739L361.806 231.162L366.411 234.675L356.317 247.904L351.483 244.216L356.297 237.907L346.726 240.586L342.121 237.072Z" fill="#412D24"/>
<path d="M362.167 252.727L372.157 249.537L370.989 253.594C370.088 252.793 369.398 251.9 368.917 250.916C368.445 249.939 368.243 248.953 368.314 247.959C368.391 246.958 368.809 246.03 369.568 245.177C370.404 244.237 371.339 243.62 372.372 243.325C373.405 243.03 374.487 243.058 375.618 243.407C376.749 243.757 377.873 244.428 378.988 245.42L385.444 251.163L374.384 263.595L369.865 259.576L378.032 250.395L376.694 249.204C376.287 248.842 375.872 248.651 375.447 248.63C375.031 248.617 374.667 248.786 374.355 249.136C374.057 249.471 373.916 249.838 373.932 250.238C373.956 250.644 374.139 251 374.482 251.305L376.395 253.006L373.651 256.091L372.718 255.261L367.283 257.279L362.167 252.727Z" fill="#412D24"/>
</svg>
