<svg width="473" height="457" viewBox="0 0 473 457" fill="none" xmlns="http://www.w3.org/2000/svg">
<path d="M177.009 248.246L158.098 236.24L163.915 228.928C165.389 227.074 166.967 225.858 168.647 225.279C170.318 224.695 171.951 224.908 173.545 225.92C174.103 226.275 174.535 226.694 174.842 227.177C175.14 227.655 175.332 228.179 175.42 228.75C175.499 229.316 175.485 229.904 175.379 230.515C176.494 229.828 177.691 229.482 178.969 229.477C180.245 229.458 181.437 229.8 182.544 230.503C183.724 231.252 184.522 232.173 184.939 233.267C185.354 234.348 185.39 235.538 185.045 236.84C184.708 238.133 183.988 239.473 182.886 240.859L177.009 248.246ZM177.116 240.701L178.431 239.048C178.988 238.347 179.248 237.714 179.209 237.149C179.162 236.578 178.827 236.096 178.206 235.701C177.611 235.324 177.014 235.189 176.412 235.298C175.811 235.406 175.272 235.761 174.794 236.362L173.28 238.265L177.116 240.701ZM169.66 235.967L170.934 234.364C171.24 233.98 171.427 233.609 171.495 233.25C171.57 232.883 171.529 232.543 171.372 232.23C171.212 231.902 170.939 231.615 170.552 231.37C169.984 231.009 169.418 230.895 168.853 231.026C168.279 231.152 167.746 231.523 167.255 232.141L166.039 233.668L169.66 235.967Z" fill="#412D24"/>
<path d="M194.42 227.953C193.72 228.759 192.906 229.371 191.978 229.792C191.05 230.213 190.085 230.393 189.084 230.331C188.074 230.263 187.104 229.899 186.174 229.236C185.366 228.661 184.815 227.975 184.522 227.18C184.236 226.376 184.213 225.48 184.453 224.491C184.685 223.496 185.189 222.422 185.967 221.268C186.751 220.106 187.806 218.876 189.131 217.578L192.254 219.763C191.648 220.217 191.115 220.685 190.655 221.166C190.186 221.64 189.823 222.099 189.566 222.541C189.308 222.983 189.181 223.388 189.185 223.756C189.18 224.117 189.343 224.416 189.673 224.651C190.029 224.904 190.41 224.96 190.815 224.818C191.219 224.676 191.607 224.392 191.978 223.965C192.314 223.579 192.545 223.183 192.672 222.778C192.806 222.365 192.81 221.964 192.684 221.575C192.549 221.179 192.252 220.817 191.791 220.489L189.028 218.521C188.611 218.224 188.176 218.038 187.721 217.962C187.258 217.88 186.778 217.955 186.281 218.187C185.775 218.413 185.242 218.849 184.682 219.493C184.123 220.137 183.671 220.851 183.326 221.636C182.989 222.412 182.805 223.174 182.775 223.922L178.28 222.636C178.46 221.409 178.839 220.212 179.416 219.046C179.985 217.874 180.682 216.813 181.507 215.863C182.55 214.663 183.689 213.741 184.924 213.096C186.151 212.444 187.442 212.165 188.797 212.256C190.15 212.334 191.531 212.874 192.938 213.876L201.018 219.631L197.45 223.738L196.121 222.791C196.332 223.567 196.296 224.402 196.013 225.295C195.72 226.181 195.19 227.068 194.42 227.953Z" fill="#412D24"/>
<path d="M204.328 216.21L191.283 205.879L197.628 199.151C199.026 197.669 200.378 196.747 201.684 196.385C202.988 196.008 204.205 196.267 205.334 197.161C206.003 197.691 206.397 198.295 206.518 198.973C206.645 199.643 206.574 200.346 206.304 201.081C206.033 201.802 205.635 202.51 205.11 203.206L203.916 202.382C205.169 201.192 206.472 200.469 207.825 200.212C209.177 199.94 210.388 200.228 211.458 201.076C212.311 201.751 212.86 202.525 213.104 203.396C213.349 204.268 213.275 205.213 212.884 206.232C212.501 207.243 211.785 208.303 210.739 209.413L204.328 216.21ZM205.238 209.204L206.907 207.435C207.273 207.047 207.468 206.693 207.492 206.373C207.508 206.047 207.377 205.774 207.102 205.556C206.851 205.357 206.558 205.288 206.223 205.349C205.896 205.401 205.539 205.633 205.151 206.044L203.131 208.186L200.07 205.762L201.805 203.923C202.156 203.551 202.36 203.211 202.417 202.903C202.465 202.589 202.351 202.322 202.075 202.104C201.799 201.885 201.483 201.825 201.128 201.923C200.771 202.007 200.428 202.223 200.099 202.572L198.716 204.039L205.238 209.204Z" fill="#412D24"/>
<path d="M218.289 201.728L205.823 190.705L210.18 186.464L216.029 191.636L214.468 182.29L218.618 178.25L231.084 189.273L226.727 193.514L220.782 188.257L222.439 197.688L218.289 201.728Z" fill="#412D24"/>
<path d="M235.183 186.303L229.7 183.703C230.323 182.777 230.643 181.978 230.661 181.306C230.679 180.62 230.456 179.956 229.99 179.316C229.518 178.668 228.864 177.931 228.031 177.105L224.144 173.254L235.634 163.012L247.455 174.723L242.678 178.982L234.403 170.784L231.99 172.934L232.331 173.272C233.49 174.421 234.452 175.531 235.217 176.604C235.982 177.662 236.511 178.717 236.802 179.769C237.093 180.807 237.116 181.864 236.87 182.939C236.616 184.006 236.054 185.128 235.183 186.303Z" fill="#412D24"/>
<path d="M257.737 166.949C256.301 168.124 254.765 168.864 253.131 169.169C251.505 169.467 249.935 169.375 248.422 168.893C246.917 168.403 245.628 167.565 244.555 166.378C243.782 165.524 243.215 164.563 242.854 163.496C242.501 162.422 242.371 161.317 242.464 160.181C242.565 159.038 242.901 157.924 243.47 156.838C244.04 155.753 244.862 154.771 245.935 153.893C247.371 152.717 248.903 151.98 250.529 151.682C252.163 151.377 253.733 151.47 255.238 151.959C256.751 152.441 258.044 153.276 259.117 154.463C259.89 155.317 260.453 156.282 260.806 157.355C261.167 158.423 261.297 159.528 261.196 160.67C261.103 161.807 260.771 162.918 260.202 164.003C259.64 165.082 258.819 166.064 257.737 166.949ZM254.089 162.913C254.552 162.535 254.879 162.095 255.072 161.593C255.265 161.077 255.302 160.545 255.18 159.997C255.067 159.443 254.778 158.908 254.313 158.394C253.848 157.88 253.34 157.525 252.789 157.328C252.238 157.132 251.683 157.09 251.125 157.203C250.567 157.301 250.053 157.543 249.583 157.928C249.112 158.313 248.78 158.764 248.586 159.28C248.394 159.782 248.358 160.307 248.48 160.854C248.601 161.402 248.894 161.933 249.359 162.447C249.824 162.961 250.332 163.317 250.883 163.513C251.442 163.702 252 163.748 252.558 163.65C253.117 163.537 253.627 163.291 254.089 162.913Z" fill="#412D24"/>
<path d="M267.542 158.519L257.097 145.566L262.219 141.729L265.814 146.188L269.912 143.118L266.316 138.659L271.438 134.822L281.884 147.775L276.762 151.612L273.046 147.004L268.948 150.074L272.664 154.682L267.542 158.519Z" fill="#412D24"/>
<path d="M292.953 140.738C291.494 141.741 289.96 142.33 288.351 142.506C286.75 142.675 285.225 142.456 283.774 141.848C282.326 141.227 281.112 140.237 280.132 138.878C279.402 137.866 278.923 136.792 278.694 135.655C278.465 134.518 278.473 133.38 278.717 132.242C278.961 131.103 279.429 130.03 280.122 129.023C280.809 128.006 281.707 127.118 282.814 126.356C283.913 125.6 285.046 125.047 286.213 124.697C287.381 124.347 288.55 124.209 289.722 124.284L290.233 129.64C289.485 129.533 288.788 129.56 288.141 129.72C287.502 129.874 286.911 130.139 286.366 130.514C285.733 130.949 285.271 131.429 284.979 131.953C284.68 132.469 284.559 133.012 284.615 133.582C284.671 134.152 284.908 134.726 285.326 135.306C285.944 136.162 286.696 136.648 287.581 136.764C288.461 136.871 289.375 136.598 290.324 135.945C290.931 135.528 291.425 135.02 291.808 134.42C292.199 133.814 292.481 133.103 292.654 132.285L297.485 134.825C297.112 135.949 296.52 137.042 295.709 138.105C294.9 139.153 293.982 140.03 292.953 140.738Z" fill="#412D24"/>
<path d="M310.445 128.745L301.584 124.162L301.854 114.49L307.535 110.9L307.155 120.225L316.802 124.727L310.445 128.745ZM301.519 134.386L292.495 120.405L297.905 116.986L301.011 121.799L305.339 119.064L308.047 123.258L303.718 125.993L306.929 130.967L301.519 134.386Z" fill="#412D24"/>
<path d="M326.777 119.51C325.169 120.437 323.552 120.906 321.926 120.919C320.31 120.927 318.825 120.552 317.471 119.793C316.126 119.028 315.057 117.951 314.265 116.562C313.694 115.561 313.341 114.49 313.206 113.349C313.08 112.203 313.175 111.066 313.489 109.937C313.812 108.803 314.354 107.74 315.114 106.748C315.875 105.756 316.856 104.914 318.057 104.222C319.666 103.296 321.278 102.829 322.895 102.821C324.52 102.808 326.006 103.184 327.35 103.948C328.704 104.707 329.777 105.781 330.57 107.171C331.141 108.172 331.489 109.245 331.615 110.391C331.75 111.532 331.656 112.67 331.332 113.804C331.018 114.932 330.481 115.993 329.72 116.985C328.969 117.971 327.988 118.813 326.777 119.51ZM324.082 114.785C324.6 114.487 325 114.102 325.284 113.631C325.572 113.145 325.712 112.615 325.704 112.042C325.705 111.462 325.534 110.872 325.19 110.269C324.847 109.667 324.431 109.217 323.942 108.92C323.453 108.623 322.93 108.481 322.373 108.495C321.82 108.493 321.28 108.644 320.753 108.948C320.226 109.251 319.818 109.646 319.531 110.132C319.247 110.603 319.109 111.125 319.117 111.699C319.125 112.273 319.301 112.861 319.644 113.463C319.988 114.066 320.404 114.515 320.893 114.812C321.391 115.104 321.916 115.251 322.47 115.252C323.027 115.239 323.564 115.083 324.082 114.785Z" fill="#412D24"/>
<path d="M345.277 109.333C343.623 110.199 342.013 110.626 340.445 110.616C338.877 110.606 337.452 110.19 336.17 109.369C334.897 108.542 333.863 107.338 333.07 105.755C332.492 104.601 332.162 103.443 332.081 102.282C332.005 101.106 332.156 99.9796 332.535 98.9026C332.924 97.8206 333.518 96.8293 334.319 95.9285C335.13 95.0228 336.136 94.2558 337.336 93.6277C338.678 92.9254 339.988 92.5406 341.267 92.4733C342.554 92.4012 343.754 92.6161 344.864 93.1183C345.97 93.6109 346.935 94.3699 347.759 95.3952C348.578 96.411 349.19 97.6676 349.594 99.1652L338.962 104.729C339.196 105.101 339.529 105.36 339.96 105.507C340.401 105.649 340.906 105.68 341.474 105.6C342.037 105.51 342.626 105.304 343.24 104.982C344.138 104.512 344.922 103.97 345.592 103.354C346.262 102.739 346.865 102.002 347.401 101.144L350.937 104.06C350.67 104.621 350.232 105.235 349.624 105.902C349.016 106.57 348.328 107.207 347.558 107.814C346.794 108.431 346.033 108.937 345.277 109.333ZM337.467 100.817L342.4 98.2356C342.142 97.7206 341.715 97.4148 341.118 97.3181C340.52 97.2213 339.872 97.356 339.173 97.722C338.454 98.0979 337.936 98.5741 337.616 99.1506C337.306 99.7221 337.256 100.278 337.467 100.817Z" fill="#412D24"/>
<path d="M265.675 274.926L250.56 258.395L255.156 253.851L266.299 266.037L271.396 260.997L260.254 248.811L264.851 244.267L279.966 260.798L265.675 274.926ZM281.97 266.686L278.191 262.553L277.053 263.678L273.08 259.332L278.587 253.888L286.339 262.366L281.97 266.686Z" fill="#412D24"/>
<path d="M290.82 251.284C290.027 251.998 289.168 252.485 288.242 252.746C287.316 253.006 286.403 253.004 285.504 252.739C284.598 252.465 283.787 251.884 283.07 250.997C282.446 250.225 282.078 249.388 281.966 248.486C281.861 247.577 282.014 246.622 282.424 245.622C282.828 244.613 283.496 243.575 284.427 242.507C285.366 241.432 286.564 240.339 288.021 239.227L290.438 242.168C289.798 242.529 289.223 242.918 288.711 243.336C288.193 243.745 287.774 244.158 287.454 244.576C287.133 244.993 286.94 245.397 286.872 245.788C286.797 246.17 286.887 246.519 287.142 246.834C287.417 247.174 287.752 247.31 288.148 247.24C288.544 247.17 288.951 246.946 289.371 246.568C289.752 246.225 290.039 245.852 290.233 245.448C290.435 245.037 290.516 244.612 290.477 244.174C290.432 243.728 290.231 243.285 289.876 242.845L287.744 240.207C287.423 239.809 287.062 239.524 286.664 239.353C286.258 239.173 285.807 239.157 285.31 239.304C284.806 239.442 284.236 239.797 283.602 240.368C282.968 240.939 282.419 241.606 281.953 242.369C281.496 243.125 281.181 243.896 281.008 244.683L277.168 242.421C277.57 241.156 278.147 239.963 278.898 238.842C279.643 237.713 280.483 236.727 281.418 235.885C282.599 234.821 283.814 234.071 285.063 233.634C286.306 233.189 287.534 233.15 288.749 233.518C289.965 233.871 291.116 234.719 292.202 236.063L298.436 243.78L294.394 247.42L293.368 246.151C293.41 247.016 293.215 247.894 292.784 248.784C292.346 249.666 291.692 250.499 290.82 251.284Z" fill="#412D24"/>
<path d="M307.744 244.413L294.084 225.464L298.277 221.997L299.231 223.321C299.288 222.418 299.561 221.522 300.05 220.635C300.547 219.741 301.227 218.937 302.09 218.223C303.29 217.231 304.576 216.63 305.948 216.421C307.321 216.197 308.67 216.394 309.994 217.012C311.321 217.614 312.514 218.65 313.574 220.121C314.31 221.142 314.83 222.218 315.133 223.348C315.444 224.472 315.546 225.596 315.439 226.721C315.325 227.837 315.004 228.903 314.477 229.919C313.952 230.919 313.221 231.807 312.283 232.582C311.683 233.078 311.045 233.467 310.37 233.749C309.694 234.032 308.983 234.192 308.236 234.229L312.652 240.355L307.744 244.413ZM308.288 228.842C308.757 228.454 309.098 227.999 309.312 227.477C309.528 226.94 309.597 226.379 309.517 225.796C309.438 225.212 309.195 224.639 308.79 224.077C308.384 223.515 307.924 223.122 307.409 222.899C306.902 222.669 306.382 222.602 305.847 222.698C305.315 222.779 304.819 223.01 304.359 223.39C303.898 223.771 303.56 224.23 303.344 224.768C303.13 225.29 303.059 225.846 303.13 226.436C303.209 227.02 303.452 227.593 303.857 228.155C304.263 228.717 304.719 229.114 305.226 229.344C305.733 229.574 306.252 229.648 306.784 229.567C307.318 229.471 307.82 229.229 308.288 228.842Z" fill="#412D24"/>
<path d="M329.831 218.586C328.421 219.658 326.947 220.296 325.411 220.503C323.883 220.702 322.434 220.494 321.064 219.879C319.697 219.249 318.56 218.229 317.653 216.821C316.978 215.772 316.543 214.653 316.347 213.466C316.152 212.279 316.182 211.087 316.437 209.892C316.692 208.696 317.16 207.566 317.84 206.501C318.515 205.428 319.387 204.484 320.457 203.671C321.519 202.864 322.609 202.269 323.729 201.886C324.848 201.503 325.965 201.342 327.079 201.404L327.46 207.005C326.749 206.903 326.084 206.941 325.465 207.118C324.854 207.289 324.285 207.574 323.758 207.974C323.147 208.439 322.697 208.948 322.408 209.501C322.113 210.046 321.987 210.616 322.029 211.212C322.071 211.807 322.286 212.406 322.673 213.007C323.244 213.895 323.951 214.393 324.792 214.502C325.628 214.601 326.504 214.303 327.421 213.606C328.007 213.16 328.488 212.621 328.865 211.988C329.25 211.348 329.533 210.599 329.713 209.74L334.265 212.331C333.888 213.513 333.302 214.666 332.508 215.79C331.717 216.899 330.824 217.831 329.831 218.586Z" fill="#412D24"/>
<path d="M342.346 208.638L336.505 198.561L332.945 201.065L330.441 196.746L342.795 188.056L345.299 192.375L341.739 194.879L347.581 204.956L342.346 208.638Z" fill="#412D24"/>
<path d="M356.004 198.992L348.36 184.212L356.123 179.186C357.833 178.079 359.311 177.54 360.557 177.568C361.807 177.581 362.762 178.227 363.424 179.506C363.816 180.264 363.947 181.014 363.817 181.756C363.695 182.492 363.392 183.201 362.908 183.881C362.427 184.546 361.842 185.159 361.151 185.72L360.409 184.493C361.895 183.645 363.263 183.297 364.513 183.449C365.767 183.586 366.707 184.26 367.335 185.473C367.835 186.44 368.039 187.413 367.949 188.395C367.859 189.376 367.471 190.336 366.785 191.273C366.107 192.205 365.128 193.086 363.848 193.914L356.004 198.992ZM359.197 191.993L361.238 190.672C361.686 190.382 361.975 190.074 362.106 189.749C362.232 189.415 362.214 189.091 362.052 188.779C361.905 188.495 361.678 188.332 361.37 188.291C361.071 188.244 360.684 188.375 360.209 188.682L357.738 190.282L355.945 186.814L358.067 185.44C358.497 185.162 358.789 184.872 358.943 184.569C359.093 184.258 359.086 183.945 358.925 183.633C358.763 183.32 358.513 183.16 358.174 183.151C357.839 183.128 357.47 183.247 357.067 183.507L355.375 184.603L359.197 191.993Z" fill="#412D24"/>
<path d="M381.904 183.15C380.306 184.092 378.73 184.559 377.177 184.551C375.633 184.538 374.242 184.127 373.001 183.319C371.771 182.506 370.824 181.37 370.163 179.913C369.687 178.864 369.424 177.745 369.374 176.556C369.332 175.362 369.5 174.179 369.878 173.009C370.264 171.833 370.855 170.734 371.649 169.712C372.443 168.69 373.437 167.827 374.632 167.123C376.231 166.18 377.802 165.716 379.346 165.729C380.898 165.737 382.29 166.148 383.521 166.961C384.761 167.769 385.712 168.902 386.373 170.359C386.849 171.408 387.108 172.53 387.149 173.724C387.199 174.913 387.031 176.096 386.645 177.272C386.267 178.442 385.682 179.538 384.887 180.56C384.103 181.577 383.108 182.44 381.904 183.15ZM379.657 178.196C380.171 177.893 380.58 177.498 380.883 177.011C381.192 176.509 381.361 175.96 381.393 175.362C381.434 174.76 381.311 174.143 381.025 173.511C380.738 172.88 380.372 172.406 379.926 172.091C379.48 171.775 378.99 171.62 378.458 171.627C377.929 171.618 377.404 171.768 376.88 172.076C376.356 172.385 375.94 172.79 375.632 173.292C375.329 173.779 375.161 174.321 375.129 174.918C375.098 175.515 375.225 176.13 375.511 176.761C375.798 177.392 376.164 177.866 376.61 178.182C377.066 178.492 377.557 178.651 378.085 178.66C378.618 178.654 379.142 178.499 379.657 178.196Z" fill="#412D24"/>
<path d="M71.186 255.938L98.6921 262.023L131.437 269.266L156.902 265.946L168.833 261.698L177.128 261.466L179.531 266.13L152.998 327.07L146.24 348.303L131.037 358.026L118.456 374.528L111.986 388.25L111.989 394.449L138.476 398.931L168.884 385.684L174.918 373.932L175.125 345.05L179.633 337.094L204.443 333.628L260.388 313.633L294.359 293.598L329.489 262.11L343.092 253.411L381.874 255.102L397.222 244.723L406.312 231.581L428.79 220.023L440.479 157.867L446.732 148.23L454.37 141.655L461.714 130.193L465.493 119.32L467.236 111.441L465.704 102.837L460.391 98.9068L454.79 102.489L449.918 108.987L441.042 111.845L432.748 112.077L427.289 108.803L423.067 103.048L414.186 93.5068L404.362 91.3337L396.863 78.6548L369.948 94.7408L361.144 94.1707L354.011 89.1491L352.406 77.774L345.128 73.4091L338.502 62.9897L329.915 58.335L320.82 59.0781L315.578 51.7199L307.719 49.9814L289.677 57.0103L271.855 66.1539L259.126 77.1132L244.8 95.2952L137.742 206.607L121.958 218.957L113.225 214.959L105.002 211.762L97.7263 213.597L87.9027 211.424L82.0799 206.692L79.3838 197.142L68.9767 191.396L56.8979 190.101L48.6772 193.104L41.1113 196.252L36.6034 204.208L37.6253 212.01L40.1761 222.217L41.9268 232.936L40.7648 238.188L34.9471 245.855L37.8597 251.321L54.161 258.371L71.186 255.938Z" stroke="#5C5C5C"/>
</svg>
