<svg width="575" height="432" viewBox="0 0 575 432" fill="none" xmlns="http://www.w3.org/2000/svg">
<path d="M395.009 160.038L395.408 157.843L397.004 156.646L397.403 155.648V154.65L396.006 153.453L394.011 152.655L391.417 152.056H389.222H387.426L385.83 152.655L382.238 156.446L380.443 158.442L379.046 159.639L377.25 160.836L376.252 161.235L374.856 160.836L373.259 159.639H371.264H368.87H366.874L365.477 160.038L364.48 161.235L363.682 162.233V163.829L364.879 166.623L367.473 168.219L376.252 169.616L380.044 171.212L384.832 178.595L387.825 180.191H390.02L392.814 178.994L395.009 179.393L396.406 180.989H398.201L399.798 180.191L401.793 178.595L402.392 176.998L401.194 175.602L399.798 174.404L398.201 173.008V171.611L399.399 170.813H400.795L402.392 171.611L403.389 173.008L404.187 173.606L404.986 174.404L405.784 175.003L406.981 174.404V173.008V171.212L406.382 169.017L404.986 166.623L403.389 165.026L401.793 164.428L398.999 163.829L396.406 162.632L395.408 161.634L395.009 160.038Z" stroke="#5C5C5C"/>
<path d="M291.849 65.2583L289.654 66.4555L288.656 67.4532L288.058 68.4509V69.8476V71.0448V72.0425L287.259 73.0402L286.062 73.6388L285.663 74.836L286.062 76.0332L287.259 76.4323L288.656 76.0332L290.053 75.2351L291.849 75.6342L293.046 76.0332L293.645 77.43L294.044 78.4277L295.041 79.6249L296.438 80.024L298.034 79.6249L299.631 78.4277L300.628 77.0309V75.2351L300.229 72.6411L301.027 71.6434L302.823 70.6458V69.0495V67.4532L301.825 66.4555H299.631L297.436 66.0564L295.64 65.2583H293.645H291.849Z" stroke="#5C5C5C"/>
<path d="M345.524 83.615L343.927 84.014L341.932 84.2136L341.333 85.0117V86.2089V87.4062L342.132 88.0048L342.93 88.4038H344.326H345.524H346.521L346.92 89.0024L347.12 89.8006L347.519 90.5987L348.118 91.5964L348.916 91.9955L350.512 91.5964L352.308 90.5987L353.705 89.202V87.4062L352.707 85.0117L351.111 83.615L349.315 82.2182L348.118 80.0233H347.519L346.521 80.6219L346.122 81.6196V83.0164L345.524 83.615Z" stroke="#5C5C5C"/>
<path d="M362.085 101.972L358.494 102.371L354.702 103.968L353.705 104.965L352.707 106.362V107.759L353.705 108.756H356.099H359.292L362.484 109.156L365.078 109.555L367.273 108.756L371.064 106.362L372.262 104.367L372.661 101.972L372.262 99.9769L370.665 98.5802H368.271L365.677 98.9792L362.085 101.972Z" stroke="#5C5C5C"/>
<path d="M338.34 112.149H336.744L334.549 114.743L333.152 116.139L332.155 117.736H331.157L329.361 116.139L327.565 114.743L325.969 114.343L324.772 115.341L321.779 116.738H319.784H318.187L317.19 118.334L316.791 121.926L318.187 124.32L320.582 125.917L323.176 126.515L324.772 125.118L325.371 122.924L327.565 121.926H329.361L331.157 123.522L331.357 125.917V128.511L332.753 129.708L334.549 130.306L335.946 129.309L336.744 127.912V125.518V123.323L337.143 121.926L339.937 119.731L340.934 117.337C340.801 116.538 340.535 114.902 340.535 114.743C340.535 114.583 340.136 113.745 339.937 113.346L338.34 112.149Z" stroke="#5C5C5C"/>
<path d="M373.259 122.924H371.064H369.268L368.67 124.121V125.917L369.668 127.313L371.663 128.511L372.262 129.309H374.057H375.654L377.05 128.111L377.25 126.515L376.651 125.118L375.654 123.522C374.988 123.323 373.578 122.924 373.259 122.924Z" stroke="#5C5C5C"/>
<path d="M519.319 26.9468C516.925 25.7496 511.937 23.2753 511.138 22.9561H509.542L506.749 24.3528L504.155 27.7449L502.758 31.7356L503.357 39.318L502.758 43.7078L501.76 46.1022L502.758 47.6985L505.152 48.8957H510.54L513.333 49.6939L516.925 52.2878L518.521 53.086H520.317L521.514 51.4897L523.51 50.8911L524.707 51.4897L525.505 52.2878L527.301 55.0813L531.691 56.079H537.477L541.069 55.0813H549.05L550.647 53.8841V51.4897L552.243 48.8957L554.837 46.1022L556.234 43.1092L554.837 37.9212L550.647 36.724L543.463 37.9212H539.074L535.083 35.7264L531.691 30.738L528.299 27.7449H523.51L519.319 26.9468Z" stroke="#5C5C5C"/>
<path d="M371.663 204.335H369.468L365.876 203.936L364.679 204.335L363.681 204.933L362.883 205.931V207.926L369.468 213.513L369.867 216.506L368.67 218.701L367.473 220.298L366.076 221.495L365.876 222.692L366.475 224.089H367.672L369.468 225.286L370.266 226.483L371.663 227.68L373.658 228.279L375.653 227.281L377.05 225.885V224.089L376.252 222.692L375.653 221.295V220.098L376.651 219.1L377.848 217.305L379.245 215.11L380.243 212.715L381.041 210.321V207.926V205.931L380.243 204.933L379.245 204.335L378.447 203.337H376.651H375.055L373.658 203.936L371.663 204.335Z" stroke="#5C5C5C"/>
<path d="M348.716 199.745H347.12L346.122 200.144L345.324 200.743L344.526 201.541V202.539V203.936L345.324 205.931L346.122 206.53L347.12 206.929H348.118L349.115 206.53L349.714 205.532V204.335V203.337V201.94L349.115 200.743L348.716 199.745Z" stroke="#5C5C5C"/>
<path d="M434.117 208.924L437.709 208.325L439.106 204.534L440.303 193.959V187.574L439.106 176.599L437.709 171.81L436.312 170.015L433.718 168.817L430.725 166.822L427.732 164.028L425.338 163.031H423.343H420.549H418.354H416.957L415.561 164.627V165.625L416.957 168.019L418.953 169.416L420.15 170.015L422.544 170.813L423.742 172.808L423.343 174.604L421.946 175.801L421.347 177.996V179.792L422.544 181.787L424.34 182.984L426.735 182.186L429.927 180.789L432.122 181.588L433.319 181.787H434.117L434.916 182.186L435.514 182.984V184.182L434.517 184.78L432.721 185.179L431.723 185.977V187.175L432.721 188.372V189.569L431.324 189.968H429.927H428.53L427.134 190.367V192.163L426.735 193.56L425.737 194.358L424.34 193.56L422.544 192.562L420.549 192.163L418.354 192.562L416.159 193.56L414.763 194.957L413.964 196.752V199.147L415.561 200.743L416.957 201.142L419.551 200.743L421.946 201.541L423.343 203.337L424.939 206.929L426.735 209.523L428.53 210.121H431.324L434.117 208.924Z" stroke="#5C5C5C"/>
<path d="M241.765 381.722H239.371L238.174 384.316L239.77 386.91L241.366 389.305L240.967 392.098L238.772 393.096L236.577 392.896L233.185 389.305H230.99L229.594 390.701L229.394 392.896L230.99 395.889L231.389 399.68L228.596 404.27L229.394 406.864L232.587 409.258L243.561 409.657L250.146 408.26H254.336L259.524 411.653H282.471L285.863 413.049L288.257 417.639L291.051 419.834L293.645 419.235H299.431L303.023 426.618L305.018 428.613L307.413 429.012L313 428.015L316.791 427.615L320.782 430.609L322.777 429.81L324.972 426.019H330.559L333.951 423.824L337.143 422.827L339.937 423.226L342.531 424.822L344.127 423.824L345.524 424.223L347.719 425.221L349.116 424.822L350.313 422.428L352.109 421.629L357.696 424.223L374.257 421.23L376.053 421.629L378.248 423.824L380.443 424.822L382.239 424.223L386.03 419.834L388.025 412.65L387.626 409.657L386.628 408.061L384.833 407.263L383.436 407.662L381.041 409.657L379.046 411.653L377.45 412.052L375.654 411.653L373.459 410.056H370.665L364.48 414.646L361.088 415.244H359.491L357.696 414.646L357.297 411.254V408.859L358.095 406.664L359.491 405.267V403.671L358.494 402.075L355.9 401.476H353.106L350.113 402.474L347.719 404.868L346.123 406.664H344.127L342.132 405.667L337.543 401.476L333.951 400.878L329.561 401.476H320.782L317.589 398.284H316.192L307.413 404.868H303.023L301.427 403.671L300.429 402.474V400.878V399.68L302.025 397.885L301.427 396.089H299.431H296.039L294.443 397.486L290.253 401.875L287.459 402.474C286.86 402.873 286.421 400.798 286.262 400.479C286.102 400.159 285.929 398.616 285.863 397.885L283.867 396.687L281.074 397.086L275.088 401.875H272.693L270.898 400.878L269.9 398.882L270.898 397.086V395.091L269.102 394.493H265.909L262.517 395.091L261.32 393.894V392.098L262.517 390.901H265.111L265.909 388.706L264.113 386.91L260.322 386.312L256.132 387.509L252.74 390.901L249.747 392.896L246.953 392.098L244.758 388.706L243.561 384.316L241.765 381.722Z" stroke="#5C5C5C"/>
<path d="M426.336 396.887L432.921 398.483L433.719 400.878L432.123 402.075L430.127 402.474H428.132L426.336 403.272L425.338 403.871H423.942L423.542 402.075L424.74 400.878V398.483L426.336 396.887Z" stroke="#5C5C5C"/>
<path d="M440.104 381.124L436.512 383.917L434.916 385.912L435.914 388.706L439.306 390.901L438.707 393.694L437.71 396.288L439.306 398.483L441.301 399.281L443.895 398.084L445.092 395.291L444.294 392.697L443.297 388.107L444.294 382.52L445.092 377.532V375.138L444.294 373.741H442.299L440.902 375.537L440.104 381.124Z" stroke="#5C5C5C"/>
<path d="M483.603 364.961L482.206 367.555L477.617 369.75L474.225 368.752L473.426 364.961L474.624 362.168L477.018 360.172L477.617 358.377L472.828 354.186L473.426 351.393L477.617 350.595L479.413 346.205L484.6 341.615L489.389 338.822L495.575 336.627L501.162 337.026L502.958 338.822L502.359 343.411L500.164 347.202L496.573 349.597L493.58 352.79L492.382 357.179L489.389 358.377L486.197 359.374L484.201 361.17L483.603 364.961Z" stroke="#5C5C5C"/>
<path d="M574.392 334.233L573.593 348.4H569.403L566.211 347.202L563.218 346.604L560.823 344.808L560.225 342.813L559.426 340.019L555.236 337.026V331.439L553.44 329.244L551.844 328.047L549.45 327.448L549.25 326.251V324.256L550.248 321.462L549.45 319.667L547.055 318.07L545.06 317.671L542.665 318.469L540.67 320.265L540.271 322.46V324.655L538.475 325.453L533.287 321.462L531.092 320.465H528.498L527.301 319.068V317.073V315.077L526.902 312.683H525.705L523.909 313.88L522.512 315.875L519.918 316.474L514.93 311.685H511.737L509.942 313.281H508.545H506.35L505.352 314.678V316.474L505.751 318.07L505.352 319.667L503.556 320.465L500.364 321.462L496.573 323.657L493.779 326.251L490.387 328.646L487.993 327.448L487.394 325.453L487.993 323.258L490.387 321.462L489.788 319.667L490.387 317.671H492.981L494.777 317.073L495.575 315.277L494.378 313.88L491.385 314.678H486.197L481.408 315.875L472.628 320.465L467.64 323.258L464.647 322.859L462.252 322.46L460.257 322.061H458.262L456.865 322.859H455.468L454.071 322.061V319.667L454.87 317.671L457.663 315.277L461.454 313.88H472.628L485.399 309.291L491.385 308.493L492.382 306.298L494.378 304.701H497.371H501.96L505.352 303.903L507.547 302.307L509.343 301.309L510.939 300.312L511.139 299.314V298.316L509.942 296.919H507.148H502.958L497.371 297.718L486.197 300.711L482.007 302.307L479.413 303.105L477.018 302.307L474.823 300.711L473.227 299.912H471.431L468.039 300.711L465.245 302.307L462.652 303.105L459.658 302.307L457.663 299.314L455.468 297.718L453.672 298.316L451.677 300.711L449.682 302.307H446.689L444.693 299.912L444.294 297.718L445.292 295.323L448.684 292.53H452.675L457.663 293.527L461.454 294.525L462.652 293.527L466.443 286.743L468.039 286.344L473.826 289.936L478.215 291.532L483.403 291.931H488.591L496.373 290.534L502.958 290.933L546.457 311.685L558.429 323.059L564.016 325.453L571.598 329.244L574.392 334.233Z" stroke="#5C5C5C"/>
<path d="M456.865 336.028L452.675 333.435L449.083 333.634L447.287 336.028L448.684 338.223L451.677 338.822L452.076 341.216L453.074 342.015L457.663 342.214L459.658 340.817L459.259 338.223L456.865 336.028Z" stroke="#5C5C5C"/>
<path d="M446.29 325.852L444.294 322.859L440.902 323.258L439.306 324.256L438.707 326.251L438.109 328.646L438.707 329.843L439.904 330.641H441.301H442.099L443.895 329.843L445.292 328.646L446.29 328.047V325.852Z" stroke="#5C5C5C"/>
<path d="M440.304 304.701L426.735 315.277L425.937 317.671L426.735 319.667L429.13 320.465L430.925 319.667L433.32 316.474H435.515L438.707 317.671L440.304 317.073L444.693 311.286H447.088L450.081 310.887L450.879 309.889V307.894L449.682 306.298L446.29 304.701L443.097 304.103L440.304 304.701Z" stroke="#5C5C5C"/>
<path d="M433.918 302.307L429.928 305.899L427.733 306.298L426.336 305.899L425.538 304.103L425.139 302.307L425.538 300.511L425.139 296.919L426.336 295.722L427.733 296.121L428.73 297.917L429.928 298.316L433.32 297.718L433.918 299.314V302.307Z" stroke="#5C5C5C"/>
<path d="M454.071 258.01L448.684 255.416H446.689L444.693 257.212H442.498H439.306H436.712L433.918 258.01L432.721 259.207V261.003L433.32 262.001H438.707L440.304 262.998V269.384L442.498 272.975L441.7 274.771L440.902 278.363L443.496 281.156L446.29 281.356L448.285 280.158L450.879 277.165L452.675 275.37L454.87 276.168L456.865 283.95L458.262 285.745L461.055 284.947L464.048 282.752L469.236 281.356L468.039 277.165L459.658 269.384L456.865 262.998L454.071 258.01Z" stroke="#5C5C5C"/>
<path d="M427.733 252.622C426.935 252.303 425.671 250.893 425.139 250.228L419.552 249.031L415.761 250.228L411.371 252.822L408.777 254.618C408.178 255.216 406.901 256.573 406.582 257.212C406.263 257.85 407.114 258.542 407.58 258.808L411.77 258.01H416.16L418.953 259.207L419.552 262.001C420.549 262.599 422.704 263.757 423.343 263.597C423.981 263.437 424.806 262.466 425.139 262.001L427.733 259.207L428.73 258.01L430.526 257.212L433.918 256.414L434.517 254.618L433.918 253.022H431.524C430.593 253.022 428.531 252.942 427.733 252.622Z" stroke="#5C5C5C"/>
<path d="M386.03 260.205L383.037 261.003H378.048L373.259 262.001L371.464 264.794L370.865 267.189L373.259 270.182C374.457 270.913 376.652 271.179 378.048 269.384C379.632 267.348 379.911 265.991 380.243 265.792H387.826L390.819 263.597C391.151 263.065 392.056 261.642 393.014 260.205C393.971 258.768 393.413 257.611 393.014 257.212C392.548 256.946 391.537 256.414 391.218 256.414C390.898 256.414 389.355 256.946 388.624 257.212L386.03 260.205Z" stroke="#5C5C5C"/>
<path d="M448.684 241.448L447.088 241.848L445.292 241.448L443.696 241.049H441.9L439.904 241.848H437.31L435.714 240.65L433.719 237.657L432.322 236.061L430.327 235.662L427.733 236.061L425.139 237.258L423.542 237.657L421.747 236.66L421.348 234.664V233.068L420.549 230.075L418.953 227.681L416.559 227.082L414.164 228.08L411.969 230.075L410.573 232.07L408.976 233.467H406.981L405.185 233.068L403.788 232.07L403.19 231.073L401.793 228.878L399.399 227.681L398.601 227.082L397.204 226.683H394.211H392.215H390.22L388.823 226.084L387.826 225.087V223.889V222.293V221.295L388.823 220.098V218.302V216.706L389.422 215.708L391.018 214.91H392.614L393.812 216.107L393.413 218.302L394.211 220.098L396.206 220.497L398.601 218.701L400.596 216.706L401.793 214.91V212.915L400.795 211.119H399.399L397.603 210.72H396.206L395.009 210.121L394.211 208.725L394.61 204.933L394.211 203.337L393.413 202.339L392.215 201.342L391.617 199.546L392.215 197.95L392.614 196.553L393.413 195.555L395.009 194.757L398.601 196.553L407.38 203.337L408.976 206.131L409.974 207.926V209.323L408.976 210.121H407.979L406.981 210.72L406.582 211.718V212.915L406.981 214.91H407.979H409.575L410.573 215.708V217.305V219.3L411.171 220.497L411.969 221.295H413.167L414.164 220.497L414.563 219.3V217.305L415.561 215.309H417.357L418.953 216.107L420.549 218.302L422.146 218.701L423.542 218.302L425.139 216.107L427.733 214.91H431.125L434.517 216.506H438.508H440.902L441.9 219.699L445.292 222.293L450.081 228.08V238.056L448.684 241.448Z" stroke="#5C5C5C"/>
<path d="M276.683 258.408L274.089 260.005L270.298 262L269.899 264.395L271.895 268.186H273.491L276.085 265.991L279.477 263.596L281.073 261.002L280.075 259.007L276.683 258.408Z" stroke="#5C5C5C"/>
<path d="M283.468 272.975L281.073 272.575L279.078 273.573L277.681 275.768L277.282 278.362V280.756L278.679 281.555L280.674 281.156L284.266 277.165V274.371L283.468 272.975Z" stroke="#5C5C5C"/>
<path d="M285.862 286.942H282.869L281.672 287.541L281.073 289.337L280.674 290.733L279.876 291.93V293.327L281.073 293.726L284.266 294.524L286.261 293.726L287.658 291.93L288.456 289.337L287.658 287.94L285.862 286.942Z" stroke="#5C5C5C"/>
<path d="M297.036 299.313L294.043 297.717L291.449 298.914V301.309L293.045 304.102L295.839 306.297L297.635 305.1L298.433 302.506L297.036 299.313Z" stroke="#5C5C5C"/>
<path d="M288.057 314.678L284.266 313.48L280.275 314.678L279.876 316.673L281.672 319.267L283.468 321.462H285.862L288.456 320.664L289.853 317.471L288.057 314.678Z" stroke="#5C5C5C"/>
<path d="M279.277 318.469H275.885L274.888 319.866V322.659L276.883 324.056H279.876L281.073 323.058L280.674 320.664L279.277 318.469Z" stroke="#5C5C5C"/>
<path d="M310.804 319.267L306.813 318.868L304.818 319.267V321.462L306.215 323.058L309.008 326.051H311.203L312.4 324.056V321.462L310.804 319.267Z" stroke="#5C5C5C"/>
<path d="M330.558 312.682L328.962 313.48L327.166 315.276L328.164 317.272L331.356 317.87L332.354 321.462L335.147 322.26L336.544 321.462L337.143 318.868L335.746 316.074L333.352 314.079L330.558 312.682Z" stroke="#5C5C5C"/>
<path d="M318.985 299.513L317.588 298.116L316.391 297.717L314.196 298.116L313.398 299.313L314.595 302.107L316.79 302.506L318.187 302.107L318.985 300.91V299.513Z" stroke="#5C5C5C"/>
<path d="M324.971 294.125L322.178 294.524L320.98 295.722V297.717L323.774 299.313V300.91L324.971 302.506H327.565L329.76 300.91L330.758 298.715L330.159 296.121L327.565 294.524L324.971 294.125Z" stroke="#5C5C5C"/>
<path d="M342.331 290.534L335.147 295.123L333.95 297.717L334.349 298.914L335.746 299.513L337.143 301.309V306.297L339.737 306.896H342.331L344.725 305.1L349.115 300.511L351.11 296.719L350.512 293.128L348.516 290.933L345.922 290.135L342.331 290.534Z" stroke="#5C5C5C"/>
<path d="M372.461 304.302L362.683 311.285L360.089 314.079L359.491 315.675L360.089 316.872H361.287L363.082 316.473L376.052 307.893L376.451 305.499L375.055 304.302H372.461Z" stroke="#5C5C5C"/>
<path d="M362.683 335.23L359.491 335.629L357.096 337.824V339.819L358.892 340.218L360.888 340.817H363.881L366.075 339.819L366.674 337.824L365.277 336.227L362.683 335.23Z" stroke="#5C5C5C"/>
<path d="M392.414 326.65L389.022 326.051L387.027 325.652L385.63 326.849L385.83 329.643L390.618 332.237L393.611 332.436L395.607 331.439L396.405 328.246H400.795L402.591 326.65V324.255L400.795 322.659L398.799 321.861H396.804L394.21 324.654L392.414 326.65Z" stroke="#5C5C5C"/>
<path d="M203.254 168.219L202.056 169.216L200.46 170.414L199.662 172.01L200.46 173.806L202.655 175.003L206.047 176.599V178.395L204.451 180.39L202.056 181.388L199.263 182.984L197.268 184.581L196.07 185.379H194.275H192.479H191.282L190.483 186.576L191.282 187.973H193.077H196.07L204.451 186.576H208.641L211.036 187.973L214.627 190.966L223.207 200.943L231.189 206.929L237.374 211.319L243.36 214.91L248.548 216.307H255.333L257.527 216.706L258.126 218.302L259.523 220.896L261.917 221.295H265.309L266.906 222.293V223.889L265.708 224.887L264.91 225.885V227.082L266.307 229.077L271.495 232.469L272.892 235.462V240.85V242.047L274.288 243.444L275.286 244.042L276.683 243.444L280.474 239.852L282.07 239.453L283.467 240.451L284.465 242.646L285.662 243.045H287.657L289.054 240.85L289.453 238.056L290.65 236.859L291.848 236.061L292.446 234.265L291.449 232.469L289.453 231.272H282.07L277.282 230.873L275.286 229.676L274.288 227.082L272.293 223.291L266.307 217.903L265.708 214.91L266.307 212.915L267.903 209.722L268.302 206.53L267.504 204.933L260.72 197.95H257.527L255.931 198.748L254.335 199.546H252.14L249.945 198.748L241.764 192.363L239.37 191.764H230.191L226.998 190.168L224.604 187.973L222.409 185.379V183.783L223.207 182.984L224.604 182.186V180.79L223.606 179.792H221.212H219.217L217.82 178.395L216.224 175.801L215.625 173.407L214.627 172.01H212.233L211.036 173.008L209.838 172.609L207.843 169.815L205.249 168.219H203.254Z" stroke="#5C5C5C"/>
<path d="M224.805 164.627L223.009 166.024L222.011 167.62L222.41 168.618L223.009 169.616H224.206L225.204 168.618L226.401 168.019H227.798L228.197 166.822V165.425L226.8 164.627H224.805Z" stroke="#5C5C5C"/>
<path d="M236.377 165.425H233.983L232.786 168.618L233.983 171.012L236.377 172.808L237.974 173.806H239.969H242.563L244.159 172.808L244.758 171.411L244.159 169.815L240.967 169.416L238.772 167.421L236.377 165.425Z" stroke="#5C5C5C"/>
<path d="M252.34 159.639L247.352 165.026L247.751 168.618H250.345H251.542L255.932 164.028V162.033L255.134 160.636L253.936 159.639H252.34Z" stroke="#5C5C5C"/>
<path d="M284.865 180.191L282.869 180.989L281.871 183.383L282.869 185.977L285.663 188.172L289.055 189.968L291.848 191.564C291.848 191.564 294.442 191.165 294.841 191.165C295.24 191.165 295.44 191.165 296.039 189.968C296.637 188.771 296.039 187.374 296.039 187.374L292.846 184.78L287.658 181.388L284.865 180.191Z" stroke="#5C5C5C"/>
<path d="M229.195 252.023L227.599 252.423L226.601 253.021L225.604 253.819L224.406 254.418L224.007 255.615L223.409 257.61L224.007 259.007L225.005 259.606H226.601L227.2 258.01L228.397 257.012L229.195 256.214H230.592H231.59L232.188 255.216L231.59 253.819L230.991 252.423L229.195 252.023Z" stroke="#5C5C5C"/>
<path d="M198.665 339.42L197.069 338.622L195.473 338.023H194.076L192.679 338.622L191.083 339.42L190.085 341.416L190.484 344.209L192.679 345.207V347.402L192.081 348.798L191.482 350.195L191.083 351.392L191.482 352.989L192.081 354.186L193.078 355.184L194.675 355.583H197.867L200.86 354.186L203.055 352.59L204.053 350.195V348.399L203.055 347.402L200.86 346.005L198.665 345.207L197.867 343.81V342.014L198.665 339.42Z" stroke="#5C5C5C"/>
<path d="M27.4644 162.033L29.0607 161.634L31.4551 162.033L33.8495 162.831L35.8449 164.428L36.6431 166.622L35.6454 168.418L34.2486 168.817H32.6523L31.2556 168.219L30.0584 167.62L29.0607 167.221L27.4644 166.622L25.8681 165.425L24.6709 164.428L25.07 162.831L26.0676 162.233L27.6639 161.983" stroke="#5C5C5C"/>
<path d="M59.589 189.768L58.5913 190.567L57.9927 191.764V193.161V195.555L57.1946 196.752L55.9974 197.949L54.6006 198.748L53.2039 200.144L53.4034 201.741L54.6006 203.137L55.1992 203.736L55.9974 204.135L57.1946 204.534L59.1899 204.135L61.1853 203.137L62.183 202.339L63.1807 201.142L63.3802 199.745L62.582 198.748L61.5844 197.949V196.752L62.582 196.154L63.5797 195.555L64.7769 193.759L64.3779 191.764L63.5797 190.567L62.582 189.768L61.1853 189.369L59.589 189.768Z" stroke="#5C5C5C"/>
<path d="M59.7883 208.923L58.591 209.721V212.315L57.5934 213.513H56.1966H54.6003L53.6026 214.51L52.8045 216.705L51.8068 217.503H50.6096L49.8115 216.107L49.6119 214.51L48.0156 213.513H46.6189L45.2221 213.912L43.6259 215.109L42.6282 216.905L42.2291 222.492L40.8323 224.487L40.6328 226.682L41.2314 228.478L43.0272 228.877H44.6235L46.0203 227.48L47.6166 225.086H49.0133L50.011 226.682L51.0087 230.473L53.004 232.668H55.1989L57.9924 232.269L59.7883 232.668L61.5841 234.464L63.1804 236.459L64.9762 237.856L66.3729 238.255L68.5678 237.257L69.5655 235.462V233.666L67.7697 231.072L63.9785 226.482L61.185 224.088L58.9901 221.893L58.591 220.496L58.9901 219.299L60.3869 218.701L61.5841 219.299L62.5818 220.496L63.1804 221.494L63.9785 221.893H65.7743L66.772 219.898V216.306L65.7743 213.513L64.3776 211.318L62.5818 209.721L61.185 208.923H59.7883Z" stroke="#5C5C5C"/>
<path d="M61.7378 242.919L61.5701 242.448L61.7378 242.919ZM66.0502 242.833L66.1638 242.346L66.0502 242.833ZM67.4189 243.373L67.7029 242.961L67.4189 243.373ZM68.0296 243.808L67.7332 244.211L68.0296 243.808ZM68.6423 244.241L68.9225 243.827L68.6423 244.241ZM69.2581 244.669L68.9675 245.076L69.2581 244.669ZM70.4862 245.53L70.7625 245.113L70.4862 245.53ZM71.7188 246.385L71.9966 245.969L71.7188 246.385ZM72.9394 247.257L72.6374 247.655L72.9394 247.257ZM73.5432 247.702L73.2519 248.108L73.5432 247.702ZM74.1681 248.117L74.43 247.691L74.1681 248.117ZM74.7921 248.534L75.0849 248.128L74.7921 248.534ZM75.9984 249.426L76.2906 249.02L75.9984 249.426ZM76.6056 249.866L76.3108 250.27L76.6056 249.866ZM77.2099 250.31L76.9125 250.712L77.2099 250.31ZM79.0368 251.623L78.7236 252.013L79.0368 251.623ZM80.2399 252.519L80.5312 252.113L80.2399 252.519ZM80.81 252.994L81.157 252.634L80.81 252.994ZM81.529 254.279L81.9823 254.068L81.529 254.279ZM81.8431 254.96L81.3884 255.168L81.8431 254.96ZM81.9303 257.134L82.4254 257.203L81.9303 257.134ZM81.5805 258.512L81.1773 258.216L81.5805 258.512ZM80.414 259.342L80.6653 259.774L80.414 259.342ZM77.5416 259.723L77.4261 260.209L77.5416 259.723ZM76.8217 259.522L76.6685 259.998L76.8217 259.522ZM75.3942 259.081L75.5097 258.594L75.3942 259.081ZM73.6022 259.721L74.0505 259.942L73.6022 259.721ZM73.2836 260.4L73.7403 260.603L73.2836 260.4ZM72.9939 261.091L73.4592 261.274L72.9939 261.091ZM72.3509 262.436L72.7635 262.718L72.3509 262.436ZM70.5606 263.38L70.5548 262.88L70.5606 263.38ZM69.8339 263.262L69.9974 262.79L69.8339 263.262ZM69.131 263.009L69.3063 262.541L69.131 263.009ZM67.5907 261.574L68.0764 261.455L67.5907 261.574ZM67.062 259.387L66.5771 259.508L67.062 259.387ZM64.6784 256.914L64.8595 256.448L64.6784 256.914ZM63.9723 256.66L64.1292 256.186L63.9723 256.66ZM62.5564 256.168L62.3954 256.641L62.5564 256.168ZM61.1454 255.658L61.3016 255.183L61.1454 255.658ZM60.4406 255.402L60.2549 255.866L60.4406 255.402ZM57.5875 254.479L57.7319 254L57.5875 254.479ZM54.5798 252.322L54.9075 251.945L54.5798 252.322ZM53.3771 250.475L52.9124 250.659L53.3771 250.475ZM52.8412 249.095L52.344 249.148L52.8412 249.095ZM53.4582 246.315L53.8673 246.602L53.4582 246.315ZM56.0808 245.668L55.8626 246.118L56.0808 245.668ZM56.7144 246.054L56.4145 246.454L56.7144 246.054ZM57.8389 247.022L57.5178 247.405L57.8389 247.022ZM58.4872 247.324L58.3967 247.816L58.4872 247.324ZM59.22 247.485L59.3433 247L59.22 247.485ZM61.3973 244.969L60.8978 244.947L61.3973 244.969ZM61.3755 243.069L61.8457 243.239L61.3755 243.069ZM61.7378 242.919L61.9055 243.39C62.1402 243.306 62.3752 243.223 62.6104 243.141L62.445 242.669L62.2796 242.197C62.0429 242.28 61.8064 242.364 61.5701 242.448L61.7378 242.919ZM62.445 242.669L62.6104 243.141C62.8483 243.057 63.0856 242.972 63.3225 242.886L63.1512 242.416L62.9799 241.947C62.747 242.032 62.5135 242.115 62.2796 242.197L62.445 242.669ZM63.1512 242.416L63.3225 242.886C63.4829 242.828 63.6393 242.811 63.7985 242.833L63.8662 242.337L63.9339 241.842C63.6095 241.798 63.2892 241.834 62.9799 241.947L63.1512 242.416ZM63.8662 242.337L63.7985 242.833C64.0275 242.864 64.2582 242.905 64.4906 242.955L64.5956 242.466L64.7007 241.977C64.4441 241.922 64.1885 241.877 63.9339 241.842L63.8662 242.337ZM64.5956 242.466L64.4906 242.955C64.7249 243.005 64.9574 243.063 65.1883 243.128L65.3237 242.646L65.459 242.165C65.2081 242.094 64.9553 242.032 64.7007 241.977L64.5956 242.466ZM65.3237 242.646L65.1883 243.128C65.4364 243.197 65.6858 243.261 65.9366 243.32L66.0502 242.833L66.1638 242.346C65.9276 242.291 65.6927 242.231 65.459 242.165L65.3237 242.646ZM66.0502 242.833L65.9366 243.32C66.1633 243.373 66.384 243.437 66.5987 243.511L66.7628 243.039L66.9269 242.567C66.6784 242.48 66.424 242.407 66.1638 242.346L66.0502 242.833ZM66.7628 243.039L66.5987 243.511C66.787 243.577 66.9654 243.667 67.1348 243.784L67.4189 243.373L67.7029 242.961C67.4608 242.794 67.2019 242.662 66.9269 242.567L66.7628 243.039ZM67.4189 243.373L67.1348 243.784C67.3364 243.923 67.5359 244.066 67.7332 244.211L68.0296 243.808L68.326 243.405C68.1205 243.254 67.9128 243.106 67.7029 242.961L67.4189 243.373ZM68.0296 243.808L67.7332 244.211C67.9398 244.363 68.1495 244.511 68.362 244.655L68.6423 244.241L68.9225 243.827C68.7209 243.69 68.522 243.55 68.326 243.405L68.0296 243.808ZM68.6423 244.241L68.362 244.655C68.5656 244.793 68.7675 244.933 68.9675 245.076L69.2581 244.669L69.5486 244.262C69.3418 244.114 69.133 243.969 68.9225 243.827L68.6423 244.241ZM69.2581 244.669L68.9675 245.076C69.1709 245.221 69.3744 245.366 69.5778 245.512L69.8684 245.105L70.159 244.698C69.9556 244.552 69.7521 244.407 69.5486 244.262L69.2581 244.669ZM69.8684 245.105L69.5778 245.512C69.7859 245.66 69.9967 245.805 70.21 245.947L70.4862 245.53L70.7625 245.113C70.5589 244.978 70.3577 244.84 70.159 244.698L69.8684 245.105ZM70.4862 245.53L70.21 245.947C70.4128 246.081 70.6129 246.22 70.8101 246.362L71.1029 245.957L71.3957 245.552C71.1876 245.401 70.9766 245.255 70.7625 245.113L70.4862 245.53ZM71.1029 245.957L70.8101 246.362C71.0177 246.512 71.228 246.658 71.4411 246.801L71.7188 246.385L71.9966 245.969C71.7937 245.834 71.5934 245.694 71.3957 245.552L71.1029 245.957ZM71.7188 246.385L71.4411 246.801C71.6444 246.936 71.8455 247.076 72.0442 247.218L72.3355 246.812L72.6268 246.405C72.4192 246.256 72.2091 246.111 71.9966 245.969L71.7188 246.385ZM72.3355 246.812L72.0442 247.218C72.2438 247.361 72.4416 247.507 72.6374 247.655L72.9394 247.257L73.2413 246.858C73.0384 246.705 72.8336 246.554 72.6268 246.405L72.3355 246.812ZM72.9394 247.257L72.6374 247.655C72.8403 247.809 73.0452 247.96 73.2519 248.108L73.5432 247.702L73.8346 247.296C73.635 247.152 73.4372 247.007 73.2413 246.858L72.9394 247.257ZM73.5432 247.702L73.2519 248.108C73.4647 248.261 73.6828 248.406 73.9061 248.543L74.1681 248.117L74.43 247.691C74.2267 247.566 74.0282 247.434 73.8346 247.296L73.5432 247.702ZM74.1681 248.117L73.9061 248.543C74.109 248.668 74.3067 248.8 74.4993 248.939L74.7921 248.534L75.0849 248.128C74.8722 247.975 74.6539 247.829 74.43 247.691L74.1681 248.117ZM74.7921 248.534L74.4993 248.939C74.6989 249.083 74.8968 249.23 75.0931 249.378L75.3952 248.98L75.6972 248.581C75.4948 248.428 75.2907 248.277 75.0849 248.128L74.7921 248.534ZM75.3952 248.98L75.0931 249.378C75.2958 249.532 75.5002 249.683 75.7063 249.831L75.9984 249.426L76.2906 249.02C76.0911 248.876 75.8933 248.73 75.6972 248.581L75.3952 248.98ZM75.9984 249.426L75.7063 249.831C75.9083 249.977 76.1097 250.123 76.3108 250.27L76.6056 249.866L76.9004 249.462C76.6976 249.314 76.4943 249.166 76.2906 249.02L75.9984 249.426ZM76.6056 249.866L76.3108 250.27C76.5118 250.416 76.7124 250.564 76.9125 250.712L77.2099 250.31L77.5073 249.908C77.3055 249.759 77.1032 249.61 76.9004 249.462L76.6056 249.866ZM77.2099 250.31L76.9125 250.712C77.1123 250.86 77.3114 251.008 77.5099 251.158L77.8108 250.759L78.1118 250.359C77.9109 250.208 77.7094 250.058 77.5073 249.908L77.2099 250.31ZM77.8108 250.759L77.5099 251.158C77.7201 251.316 77.9363 251.466 78.1586 251.608L78.4273 251.186L78.6959 250.765C78.4957 250.637 78.301 250.502 78.1118 250.359L77.8108 250.759ZM78.4273 251.186L78.1586 251.608C78.3545 251.733 78.5428 251.868 78.7236 252.013L79.0368 251.623L79.35 251.234C79.1407 251.065 78.9226 250.909 78.6959 250.765L78.4273 251.186ZM79.0368 251.623L78.7236 252.013C78.9247 252.175 79.1292 252.332 79.3373 252.484L79.6322 252.08L79.9272 251.676C79.7315 251.533 79.5391 251.386 79.35 251.234L79.0368 251.623ZM79.6322 252.08L79.3373 252.484C79.5404 252.632 79.7441 252.779 79.9486 252.926L80.2399 252.519L80.5312 252.113C80.3292 251.968 80.1278 251.823 79.9272 251.676L79.6322 252.08ZM80.2399 252.519L79.9486 252.926C80.1324 253.058 80.3038 253.2 80.4631 253.354L80.81 252.994L81.157 252.634C80.9624 252.446 80.7537 252.273 80.5312 252.113L80.2399 252.519ZM80.81 252.994L80.4631 253.354C80.591 253.477 80.6908 253.622 80.7634 253.791L81.2231 253.594L81.6827 253.398C81.5585 253.107 81.3829 252.851 81.157 252.634L80.81 252.994ZM81.2231 253.594L80.7634 253.791C80.8639 254.026 80.968 254.259 81.0757 254.49L81.529 254.279L81.9823 254.068C81.8789 253.846 81.7791 253.623 81.6827 253.398L81.2231 253.594ZM81.529 254.279L81.0757 254.49C81.1807 254.716 81.2849 254.942 81.3884 255.168L81.8431 254.96L82.2979 254.752C82.1935 254.524 82.0883 254.296 81.9823 254.068L81.529 254.279ZM81.8431 254.96L81.3884 255.168C81.4722 255.352 81.5253 255.537 81.5497 255.725L82.0456 255.661L82.5414 255.597C82.5038 255.306 82.4219 255.024 82.2979 254.752L81.8431 254.96ZM82.0456 255.661L81.5497 255.725C81.5746 255.918 81.5727 256.115 81.5426 256.318L82.0373 256.391L82.5319 256.465C82.5749 256.173 82.5785 255.884 82.5414 255.597L82.0456 255.661ZM82.0373 256.391L81.5426 256.318C81.5059 256.567 81.4701 256.816 81.4351 257.064L81.9303 257.134L82.4254 257.203C82.46 256.957 82.4955 256.711 82.5319 256.465L82.0373 256.391ZM81.9303 257.134L81.4351 257.064C81.4003 257.312 81.3656 257.56 81.3309 257.807L81.8261 257.877L82.3213 257.946C82.3559 257.698 82.3906 257.451 82.4254 257.203L81.9303 257.134ZM81.8261 257.877L81.3309 257.807C81.3061 257.985 81.2508 258.116 81.1773 258.216L81.5805 258.512L81.9837 258.808C82.1684 258.556 82.2769 258.263 82.3213 257.946L81.8261 257.877ZM81.5805 258.512L81.1773 258.216C81.0943 258.33 80.9764 258.437 80.8111 258.533L81.0626 258.965L81.314 259.397C81.581 259.242 81.8084 259.047 81.9837 258.808L81.5805 258.512ZM81.0626 258.965L80.8111 258.533C80.595 258.658 80.3789 258.784 80.1627 258.91L80.414 259.342L80.6653 259.774C80.8815 259.649 81.0978 259.523 81.314 259.397L81.0626 258.965ZM80.414 259.342L80.1627 258.91C79.9696 259.022 79.772 259.116 79.5698 259.193L79.7471 259.66L79.9243 260.128C80.1789 260.031 80.4259 259.913 80.6653 259.774L80.414 259.342ZM79.7471 259.66L79.5698 259.193C79.4022 259.257 79.2262 259.287 79.0381 259.284L79.0295 259.784L79.0208 260.284C79.3327 260.289 79.6351 260.238 79.9243 260.128L79.7471 259.66ZM79.0295 259.784L79.0381 259.284C78.7782 259.279 78.5183 259.283 78.2584 259.294L78.2795 259.793L78.3005 260.293C78.5406 260.283 78.7807 260.28 79.0208 260.284L79.0295 259.784ZM78.2795 259.793L78.2584 259.294C78.054 259.302 77.8539 259.283 77.657 259.236L77.5416 259.723L77.4261 260.209C77.713 260.277 78.0049 260.305 78.3005 260.293L78.2795 259.793ZM77.5416 259.723L77.657 259.236C77.4278 259.182 77.2005 259.119 76.9749 259.046L76.8217 259.522L76.6685 259.998C76.9189 260.078 77.1714 260.149 77.4261 260.209L77.5416 259.723ZM76.8217 259.522L76.9749 259.046C76.7393 258.97 76.5044 258.893 76.27 258.813L76.1095 259.287L75.949 259.76C76.1882 259.841 76.4281 259.92 76.6685 259.998L76.8217 259.522ZM76.1095 259.287L76.27 258.813C76.0187 258.728 75.7652 258.655 75.5097 258.594L75.3942 259.081L75.2787 259.567C75.5034 259.621 75.7269 259.685 75.949 259.76L76.1095 259.287ZM75.3942 259.081L75.5097 258.594C75.2248 258.527 74.9344 258.499 74.6397 258.51L74.659 259.01L74.6782 259.509C74.8835 259.501 75.0833 259.521 75.2787 259.567L75.3942 259.081ZM74.659 259.01L74.6397 258.51C74.3126 258.523 74.0041 258.61 73.7395 258.795L74.0261 259.204L74.3127 259.614C74.3919 259.559 74.5054 259.516 74.6782 259.509L74.659 259.01ZM74.0261 259.204L73.7395 258.795C73.4866 258.972 73.2946 259.215 73.1538 259.5L73.6022 259.721L74.0505 259.942C74.1311 259.779 74.2217 259.678 74.3127 259.614L74.0261 259.204ZM73.6022 259.721L73.1538 259.5C73.0402 259.73 72.9312 259.962 72.8269 260.196L73.2836 260.4L73.7403 260.603C73.8393 260.381 73.9427 260.161 74.0505 259.942L73.6022 259.721ZM73.2836 260.4L72.8269 260.196C72.7222 260.431 72.6227 260.668 72.5285 260.908L72.9939 261.091L73.4592 261.274C73.548 261.048 73.6417 260.825 73.7403 260.603L73.2836 260.4ZM72.9939 261.091L72.5285 260.908C72.439 261.136 72.3459 261.362 72.2493 261.587L72.7087 261.785L73.1681 261.982C73.2688 261.747 73.3659 261.511 73.4592 261.274L72.9939 261.091ZM72.7087 261.785L72.2493 261.587C72.1633 261.788 72.0596 261.976 71.9384 262.153L72.3509 262.436L72.7635 262.718C72.9219 262.487 73.0568 262.241 73.1681 261.982L72.7087 261.785ZM72.3509 262.436L71.9384 262.153C71.8145 262.334 71.6752 262.505 71.5203 262.666L71.8802 263.013L72.2401 263.36C72.4332 263.16 72.6078 262.946 72.7635 262.718L72.3509 262.436ZM71.8802 263.013L71.5203 262.666C71.417 262.773 71.3166 262.82 71.2106 262.834L71.2774 263.329L71.3441 263.825C71.6939 263.778 71.9954 263.614 72.2401 263.36L71.8802 263.013ZM71.2774 263.329L71.2106 262.834C71.0046 262.862 70.7862 262.877 70.5548 262.88L70.5606 263.38L70.5663 263.88C70.835 263.877 71.0944 263.859 71.3441 263.825L71.2774 263.329ZM70.5606 263.38L70.5548 262.88C70.362 262.882 70.177 262.852 69.9974 262.79L69.8339 263.262L69.6703 263.735C69.9597 263.835 70.2592 263.883 70.5663 263.88L70.5606 263.38ZM69.8339 263.262L69.9974 262.79C69.7669 262.71 69.5365 262.627 69.3063 262.541L69.131 263.009L68.9557 263.477C69.1937 263.567 69.4319 263.652 69.6703 263.735L69.8339 263.262ZM69.131 263.009L69.3063 262.541C69.1064 262.466 68.919 262.371 68.7433 262.256L68.4693 262.674L68.1953 263.093C68.4336 263.249 68.6873 263.377 68.9557 263.477L69.131 263.009ZM68.4693 262.674L68.7433 262.256C68.5712 262.143 68.421 262.015 68.2912 261.87L67.9193 262.204L67.5474 262.539C67.737 262.75 67.9535 262.934 68.1953 263.093L68.4693 262.674ZM67.9193 262.204L68.2912 261.87C68.1893 261.757 68.1172 261.621 68.0764 261.455L67.5907 261.574L67.105 261.692C67.1831 262.011 67.33 262.297 67.5474 262.539L67.9193 262.204ZM67.5907 261.574L68.0764 261.455C68.0173 261.213 67.9587 260.971 67.9009 260.728L67.4145 260.845L66.9282 260.961C66.9865 261.205 67.0454 261.449 67.105 261.692L67.5907 261.574ZM67.4145 260.845L67.9009 260.728C67.8428 260.485 67.7848 260.242 67.7268 259.999L67.2404 260.115L66.7541 260.231C66.8121 260.474 66.8701 260.718 66.9282 260.961L67.4145 260.845ZM67.2404 260.115L67.7268 259.999C67.6683 259.754 67.6083 259.509 67.5469 259.265L67.062 259.387L66.5771 259.508C66.6375 259.749 66.6965 259.99 66.7541 260.231L67.2404 260.115ZM67.062 259.387L67.5469 259.265C67.4772 258.988 67.379 258.721 67.2522 258.465L66.8042 258.688L66.3563 258.91C66.4513 259.101 66.5248 259.301 66.5771 259.508L67.062 259.387ZM66.8042 258.688L67.2522 258.465C67.1392 258.238 67.0228 258.011 66.9029 257.786L66.4616 258.021L66.0203 258.256C66.1356 258.473 66.2476 258.69 66.3563 258.91L66.8042 258.688ZM66.4616 258.021L66.9029 257.786C66.7569 257.512 66.5681 257.275 66.3342 257.085L66.0181 257.472L65.702 257.859C65.8243 257.959 65.9312 258.089 66.0203 258.256L66.4616 258.021ZM66.0181 257.472L66.3342 257.085C66.0985 256.892 65.8263 256.756 65.5254 256.671L65.3896 257.152L65.2538 257.633C65.4347 257.684 65.5814 257.761 65.702 257.859L66.0181 257.472ZM65.3896 257.152L65.5254 256.671C65.2999 256.607 65.0779 256.533 64.8595 256.448L64.6784 256.914L64.4972 257.38C64.7454 257.477 64.9976 257.561 65.2538 257.633L65.3896 257.152ZM64.6784 256.914L64.8595 256.448C64.6182 256.354 64.3748 256.267 64.1292 256.186L63.9723 256.66L63.8154 257.135C64.0447 257.211 64.2719 257.293 64.4972 257.38L64.6784 256.914ZM63.9723 256.66L64.1292 256.186C63.8962 256.109 63.6643 256.028 63.4337 255.945L63.2639 256.416L63.0942 256.886C63.3334 256.972 63.5738 257.055 63.8154 257.135L63.9723 256.66ZM63.2639 256.416L63.4337 255.945C63.1959 255.859 62.9571 255.776 62.7174 255.694L62.5564 256.168L62.3954 256.641C62.6293 256.72 62.8622 256.802 63.0942 256.886L63.2639 256.416ZM62.5564 256.168L62.7174 255.694C62.4873 255.616 62.259 255.533 62.0326 255.445L61.8516 255.911L61.6706 256.377C61.9103 256.47 62.1519 256.558 62.3954 256.641L62.5564 256.168ZM61.8516 255.911L62.0326 255.445C61.7913 255.351 61.5476 255.264 61.3016 255.183L61.1454 255.658L60.9893 256.133C61.2187 256.208 61.4458 256.29 61.6706 256.377L61.8516 255.911ZM61.1454 255.658L61.3016 255.183C61.0738 255.108 60.8488 255.026 60.6264 254.937L60.4406 255.402L60.2549 255.866C60.4968 255.963 60.7416 256.052 60.9893 256.133L61.1454 255.658ZM60.4406 255.402L60.6264 254.937C60.3904 254.843 60.1533 254.751 59.9149 254.663L59.7407 255.131L59.5664 255.6C59.797 255.686 60.0265 255.774 60.2549 255.866L60.4406 255.402ZM59.7407 255.131L59.9149 254.663C59.67 254.572 59.4223 254.489 59.172 254.414L59.0295 254.894L58.8869 255.373C59.1159 255.441 59.3424 255.517 59.5664 255.6L59.7407 255.131ZM59.0295 254.894L59.172 254.414C58.9292 254.342 58.6856 254.272 58.4413 254.205L58.3083 254.687L58.1753 255.169C58.4132 255.235 58.6505 255.303 58.8869 255.373L59.0295 254.894ZM58.3083 254.687L58.4413 254.205C58.204 254.139 57.9675 254.071 57.7319 254L57.5875 254.479L57.4432 254.958C57.6863 255.031 57.9304 255.101 58.1753 255.169L58.3083 254.687ZM57.5875 254.479L57.7319 254C57.5196 253.936 57.3163 253.855 57.1214 253.758L56.8973 254.205L56.6732 254.652C56.9199 254.775 57.1767 254.877 57.4432 254.958L57.5875 254.479ZM56.8973 254.205L57.1214 253.758C56.944 253.669 56.7817 253.556 56.6335 253.417L56.292 253.782L55.9505 254.147C56.1678 254.351 56.409 254.519 56.6732 254.652L56.8973 254.205ZM56.292 253.782L56.6335 253.417C56.4454 253.241 56.2536 253.069 56.0582 252.902L55.733 253.282L55.4078 253.662C55.5921 253.82 55.773 253.981 55.9505 254.147L56.292 253.782ZM55.733 253.282L56.0582 252.902C55.8643 252.736 55.6678 252.573 55.4686 252.413L55.1556 252.803L54.8426 253.193C55.0335 253.346 55.2219 253.502 55.4078 253.662L55.733 253.282ZM55.1556 252.803L55.4686 252.413C55.2785 252.261 55.0915 252.104 54.9075 251.945L54.5798 252.322L54.2521 252.7C54.4457 252.868 54.6426 253.032 54.8426 253.193L55.1556 252.803ZM54.5798 252.322L54.9075 251.945C54.7472 251.806 54.6088 251.654 54.4909 251.49L54.0845 251.781L53.6782 252.072C53.843 252.302 54.0347 252.511 54.2521 252.7L54.5798 252.322ZM54.0845 251.781L54.4909 251.49C54.3623 251.31 54.2433 251.12 54.1342 250.917L53.6941 251.155L53.2541 251.392C53.3828 251.63 53.5241 251.857 53.6782 252.072L54.0845 251.781ZM53.6941 251.155L54.1342 250.917C54.0245 250.714 53.927 250.505 53.8417 250.29L53.3771 250.475L52.9124 250.659C53.012 250.91 53.1259 251.154 53.2541 251.392L53.6941 251.155ZM53.3771 250.475L53.8417 250.29C53.742 250.039 53.6278 249.795 53.4992 249.557L53.0595 249.795L52.6198 250.033C52.7297 250.236 52.8272 250.445 52.9124 250.659L53.3771 250.475ZM53.0595 249.795L53.4992 249.557C53.4106 249.394 53.3577 249.223 53.3384 249.042L52.8412 249.095L52.344 249.148C52.3772 249.46 52.4698 249.756 52.6198 250.033L53.0595 249.795ZM52.8412 249.095L53.3384 249.042C53.3137 248.81 53.2989 248.576 53.2941 248.34L52.7942 248.35L52.2943 248.361C52.2997 248.625 52.3162 248.887 52.344 249.148L52.8412 249.095ZM52.7942 248.35L53.2941 248.34C53.2891 248.097 53.2888 247.852 53.2933 247.607L52.7934 247.598L52.2935 247.589C52.2888 247.847 52.289 248.104 52.2943 248.361L52.7942 248.35ZM52.7934 247.598L53.2933 247.607C53.2961 247.459 53.3389 247.333 53.4256 247.215L53.0233 246.919L52.621 246.622C52.4104 246.907 52.3 247.234 52.2935 247.589L52.7934 247.598ZM53.0233 246.919L53.4256 247.215C53.5765 247.011 53.7237 246.807 53.8673 246.602L53.4582 246.315L53.0491 246.027C52.91 246.225 52.7673 246.423 52.621 246.622L53.0233 246.919ZM53.4582 246.315L53.8673 246.602C53.9734 246.451 54.104 246.323 54.2621 246.215L53.9807 245.802L53.6993 245.388C53.4434 245.563 53.2257 245.776 53.0491 246.027L53.4582 246.315ZM53.9807 245.802L54.2621 246.215C54.4199 246.107 54.5869 246.034 54.7654 245.991L54.6493 245.505L54.5332 245.018C54.2341 245.09 53.9554 245.214 53.6993 245.388L53.9807 245.802ZM54.6493 245.505L54.7654 245.991C54.9469 245.948 55.1302 245.937 55.3179 245.959L55.3754 245.462L55.4329 244.965C55.1299 244.93 54.8291 244.948 54.5332 245.018L54.6493 245.505ZM55.3754 245.462L55.3179 245.959C55.5067 245.98 55.6876 246.033 55.8626 246.118L56.0808 245.668L56.2991 245.218C56.0242 245.085 55.7348 245 55.4329 244.965L55.3754 245.462ZM56.0808 245.668L55.8626 246.118C56.0591 246.213 56.2429 246.325 56.4145 246.454L56.7144 246.054L57.0143 245.654C56.791 245.486 56.5524 245.341 56.2991 245.218L56.0808 245.668ZM56.7144 246.054L56.4145 246.454C56.5974 246.591 56.774 246.739 56.9441 246.898L57.285 246.532L57.626 246.166C57.4301 245.984 57.2262 245.813 57.0143 245.654L56.7144 246.054ZM57.285 246.532L56.9441 246.898C57.1333 247.074 57.3245 247.243 57.5178 247.405L57.8389 247.022L58.1601 246.639C57.9807 246.488 57.8027 246.331 57.626 246.166L57.285 246.532ZM57.8389 247.022L57.5178 247.405C57.7722 247.618 58.0683 247.755 58.3967 247.816L58.4872 247.324L58.5778 246.832C58.4144 246.802 58.2783 246.738 58.1601 246.639L57.8389 247.022ZM58.4872 247.324L58.3967 247.816C58.6315 247.859 58.8649 247.91 59.0966 247.969L59.22 247.485L59.3433 247C59.0899 246.936 58.8347 246.88 58.5778 246.832L58.4872 247.324ZM59.22 247.485L59.0966 247.969C59.3837 248.042 59.6746 248.075 59.9681 248.066L59.9529 247.566L59.9376 247.066C59.7391 247.072 59.5415 247.051 59.3433 247L59.22 247.485ZM59.9529 247.566L59.9681 248.066C60.2597 248.057 60.5466 248.009 60.8278 247.922L60.6802 247.444L60.5326 246.966C60.3359 247.027 60.138 247.06 59.9376 247.066L59.9529 247.566ZM60.6802 247.444L60.8278 247.922C61.1456 247.824 61.4292 247.649 61.6176 247.367L61.2018 247.089L60.7859 246.811C60.7568 246.855 60.6926 246.917 60.5326 246.966L60.6802 247.444ZM61.2018 247.089L61.6176 247.367C61.7887 247.11 61.8673 246.81 61.8829 246.494L61.3836 246.469L60.8842 246.445C60.875 246.629 60.8324 246.742 60.7859 246.811L61.2018 247.089ZM61.3836 246.469L61.8829 246.494C61.896 246.231 61.8986 245.968 61.8909 245.705L61.3911 245.719L60.8913 245.734C60.8983 245.971 60.8959 246.208 60.8842 246.445L61.3836 246.469ZM61.3911 245.719L61.8909 245.705C61.8839 245.467 61.8859 245.23 61.8968 244.992L61.3973 244.969L60.8978 244.947C60.8858 245.209 60.8836 245.472 60.8913 245.734L61.3911 245.719ZM61.3973 244.969L61.8968 244.992C61.9089 244.728 61.9092 244.463 61.8978 244.198L61.3983 244.219L60.8988 244.241C60.9089 244.476 60.9086 244.711 60.8978 244.947L61.3973 244.969ZM61.3983 244.219L61.8978 244.198C61.8872 243.952 61.8793 243.705 61.8742 243.459L61.3743 243.469L60.8744 243.48C60.8797 243.734 60.8878 243.987 60.8988 244.241L61.3983 244.219ZM61.3743 243.469L61.8742 243.459C61.8716 243.335 61.8705 243.244 61.8706 243.183C61.8707 243.153 61.8712 243.134 61.8715 243.125C61.8718 243.12 61.8717 243.123 61.871 243.131C61.8706 243.135 61.8695 243.145 61.8673 243.158C61.8659 243.166 61.8604 243.199 61.8457 243.239L61.3755 243.069L60.9052 242.9C60.8807 242.967 60.8762 243.029 60.876 243.031C60.874 243.05 60.873 243.069 60.8725 243.082C60.8712 243.111 60.8708 243.145 60.8707 243.18C60.8704 243.253 60.8717 243.354 60.8744 243.48L61.3743 243.469ZM61.3755 243.069L61.8457 243.239C61.8271 243.291 61.8034 243.33 61.7854 243.355C61.7669 243.382 61.749 243.402 61.7357 243.415C61.71 243.442 61.6872 243.459 61.6758 243.467C61.6529 243.484 61.6358 243.492 61.6349 243.493C61.6305 243.495 61.6371 243.492 61.6626 243.481C61.7107 243.461 61.79 243.431 61.9055 243.39L61.7378 242.919L61.5701 242.448C61.4501 242.49 61.3512 242.527 61.2785 242.558C61.2436 242.572 61.2042 242.589 61.1681 242.608C61.1513 242.617 61.122 242.633 61.0904 242.656C61.0747 242.668 61.0484 242.688 61.0201 242.717C60.9972 242.74 60.9406 242.802 60.9052 242.9L61.3755 243.069Z" fill="#5C5C5C"/>
<path d="M136.809 45.1048C124.039 63.8612 113.264 56.8775 92.712 59.0724L87.9231 60.8682L84.3315 63.2627L80.7398 65.258L79.1435 67.6525L79.7421 70.446L82.1366 73.8381V78.2279L80.5403 81.0214L77.1482 83.4158L73.5565 85.4112L68.3686 88.4042L65.5751 92.1954L64.9765 97.5828L63.9788 103.369L61.9834 105.963L59.3895 107.759L55.9974 109.156L51.009 110.553L47.8164 111.75L44.8234 113.945L43.0275 117.337L42.828 125.119L42.6285 130.307L41.8303 132.302L39.6354 134.297L37.8396 134.896H34.0484L30.8559 134.297L27.6633 134.098L25.6679 134.697L24.4707 135.295V136.492L31.2549 142.079L33.2503 145.471L33.8489 152.256L35.8442 156.645L39.0368 160.636L41.4313 162.033L43.6261 162.432L48.415 164.826L54.9997 169.615L58.9904 172.808L60.7862 175.402L61.1853 179.393L61.9834 181.787L63.5797 183.184H65.7746L67.5705 181.188L68.1691 175.402L69.7653 173.007H71.9602L73.9556 175.003L76.1505 176.4H78.1459L80.3407 175.601L85.3291 175.402L87.9231 177.796L88.5217 181.188L87.3245 183.982L84.1319 185.778L79.3431 185.977L76.35 186.576L73.9556 188.172L71.9602 191.365V197.351L73.1575 198.947L78.944 201.541L80.5403 203.137V207.328L81.7375 208.924H83.9324L85.7282 210.321L85.5287 213.912L85.7282 217.504L89.1203 220.696H91.5148L94.1087 219.499L98.4985 215.309L100.893 214.71L102.29 215.309L103.686 218.302L104.684 220.896L106.879 222.093H108.874L110.271 221.295L114.86 216.706H117.454L119.25 217.903L121.645 218.502L123.241 217.903L127.83 215.109L133.617 213.912L138.805 213.513L141.199 211.717L143.594 211.318L146.387 212.516L150.976 216.107L154.967 216.506L157.362 215.908L159.956 214.311L162.35 213.912L164.944 215.708L166.54 219.1L169.733 221.894H172.925L173.524 221.096L173.724 218.103L175.12 216.905L177.315 216.506L179.311 217.504L180.707 219.699L181.905 224.687L183.9 225.884L187.092 224.488L188.489 224.887V227.082L189.886 228.478L191.682 228.877L193.877 228.279H197.069L199.065 230.673H201.459L205.25 230.075L207.645 231.671V233.467L205.25 236.061L201.659 238.256L199.663 238.455L197.668 237.857H193.079L190.684 239.253L189.886 243.045L186.693 243.643L181.106 239.852L177.714 239.253L175.12 234.864L173.724 233.068L170.93 231.671H168.735L166.54 232.469L163.348 233.068L161.951 232.469L159.956 229.875L158.359 228.877H156.364L154.169 230.075L151.974 228.279L149.979 226.084H147.983L144.591 226.283L142.795 225.685L141.399 222.891L138.805 219.499L136.211 219.1H131.821L128.628 220.098L126.434 221.894L123.44 227.481L120.647 229.676H112.466C111.136 229.41 108.435 228.838 108.276 228.678C108.116 228.518 106.613 227.813 105.881 227.481L103.886 226.882L102.29 227.481L101.492 229.476L101.891 232.868L101.492 234.265L99.2967 236.26L98.4985 240.65L96.1041 242.246L92.5124 243.244L88.9208 247.833L89.1203 251.425L91.5148 252.024L96.7027 252.822L99.8953 256.214V261.801L100.693 263.796H101.891L104.485 262L106.679 261.801L110.271 262.998L111.668 264.594L118.253 271.578L121.246 276.966L120.447 281.555L116.257 285.945L114.461 288.539L114.062 292.33L119.051 301.509L119.45 308.093L120.447 310.488L122.642 312.084L128.03 312.483L129.626 313.68L131.222 317.272L133.018 317.671L134.415 317.072L136.41 313.281V310.089L134.016 307.096L133.018 304.701L134.016 303.105L139.004 302.706L142.596 299.912L144.791 298.915H145.988V304.701L147.584 306.696L153.371 306.896L153.969 311.685L157.96 314.877L159.357 318.868L162.55 321.462L161.352 323.258L160.754 325.652L161.751 326.451L162.55 328.047L160.754 330.242L159.756 332.437L161.751 333.833L165.343 333.634L166.341 334.432L166.74 335.829L167.937 336.826L169.733 335.829L169.932 333.035L168.336 330.84L166.74 328.845L166.341 326.65L167.338 324.655L170.331 323.457L172.925 321.462L174.123 317.671L175.519 313.68L177.315 312.084H180.109L183.102 314.877L184.498 319.467L186.494 321.462H190.485L192.081 322.26L193.677 325.054L196.072 328.845L198.466 330.242L200.461 330.84L202.457 332.437L207.844 335.43H209.44L210.239 334.631V332.237L209.44 330.042L207.445 328.047L205.649 327.448L202.856 326.451L200.86 325.054L200.461 323.258L200.262 315.875L202.656 312.882V310.288L198.666 306.098L198.067 303.903L198.466 299.513L197.867 295.922L195.872 294.724L193.079 294.325L191.682 292.928L191.283 287.541L188.09 284.348V280.956L185.097 277.365L181.905 272.576L182.304 268.186L183.9 266.59L187.092 266.191L189.686 269.184L191.682 269.583L193.877 268.585L195.074 269.184L200.661 274.97L204.253 281.355L206.447 283.151H209.041L212.034 279.759L215.826 277.365H222.809L225.403 276.567L226.601 274.97L226.201 272.775L222.809 270.381L221.413 268.386V262.399L220.415 260.803L219.018 260.005H217.422L215.826 261.801L215.227 266.59L213.631 267.188L211.436 266.59L209.041 265.193L207.246 263.198V255.615L206.447 254.019L204.253 252.822L200.062 251.425L199.464 249.43L200.062 246.437L201.858 245.239L204.851 246.437H207.645L212.434 243.045H214.628L218.42 243.444L220.415 243.045L222.41 241.648L229.394 237.857H233.185L235.779 239.652L236.378 245.638L237.375 247.235H241.965L242.364 248.632L241.965 253.62L243.761 254.618L248.749 253.62L249.946 255.615V259.806L252.341 262.399L257.13 262.998L259.324 262.399L260.721 260.604L259.923 257.411L257.13 254.618V250.826L259.923 248.232L260.721 244.84L259.923 242.047L258.327 240.65L254.336 237.857V235.462L257.13 231.671V229.277L255.932 227.281L252.54 224.488L248.15 224.089L244.359 221.295L239.77 220.696L236.976 218.901L234.183 216.506L231.19 214.112L227 212.316L222.011 210.919L216.424 210.321L214.03 208.126V205.532L214.628 203.935L216.424 201.541L215.227 199.745L212.234 198.947L202.656 199.745L198.865 198.947L196.67 196.353L195.074 193.959L190.884 191.764L181.306 190.167L172.526 189.768L170.132 188.771V186.576L171.13 184.78H185.097L192.081 181.587L197.269 177.597L196.67 173.606L195.473 172.409L192.081 171.611L190.884 169.815L190.085 167.62L187.492 166.223L185.097 164.826V162.632L186.095 161.235L189.287 160.636L190.884 158.441L193.278 157.045H195.473L197.668 159.04L200.86 159.838L203.454 160.237L206.447 161.833L208.243 164.826L210.837 167.62H212.234L213.431 166.822V163.031L211.835 159.04L207.844 154.65L204.053 151.458L203.454 148.864L201.259 144.673L198.466 142.877L194.475 141.88L190.085 138.089L188.888 133.499L189.487 128.91L188.888 127.114H185.496L183.102 125.518L172.127 112.748L170.531 108.358L171.728 104.168L175.32 98.1814L174.921 95.1884L172.526 91.9958L171.728 89.4019L172.127 86.2093L173.324 85.0121L176.517 83.0167H181.705L184.698 83.6153L186.294 85.0121L188.888 89.4019L191.482 93.3926L197.867 96.9842L203.255 99.9773L210.239 100.775L213.431 103.17L213.631 109.355L215.027 111.75L217.222 112.748L218.42 115.741L221.612 118.135L224.206 118.734L238.972 119.731L239.969 119.133V117.337L238.972 115.741L235.181 114.543H224.206L223.009 112.748L222.41 108.956L219.218 107.36L217.821 104.168L218.42 101.174L220.215 99.9773H223.009L226.8 101.773H233.784L236.178 102.97L241.566 108.956V113.546L243.761 115.741L247.552 116.14L248.15 119.731L250.146 120.929H253.139L255.733 118.734V116.738L255.134 115.342L253.737 113.546V112.348L254.336 111.151V109.355L252.74 107.759L250.744 107.36L249.148 106.761L248.15 105.963L246.754 104.168L240.369 99.5782L239.171 97.3833L238.972 95.5875L239.57 94.3903H243.761L245.556 93.3926H248.15L250.744 94.1907L256.73 97.1838L259.723 97.9819L262.517 98.381L264.113 99.1791L266.907 101.773L270.498 108.158L273.691 110.553H276.485L278.081 109.755L279.677 107.759V104.168L278.081 102.172L275.487 100.376L272.494 97.9819L269.9 94.7893L269.501 92.794L268.304 90.5991L266.109 89.0028H263.515L260.123 89.6014L255.733 91.3972H252.74L251.343 90.5991L250.146 88.4042V82.8172L248.549 80.2232L243.561 76.6316L241.366 73.6385V70.6455L242.364 68.8497L244.958 67.0538H248.549L250.146 68.8497L253.737 71.4436L256.73 72.0422H262.517L265.71 70.6455L274.29 65.258L276.485 63.0631L277.083 59.8706L279.278 57.8752H282.072L286.262 60.4692H289.654H291.45L295.241 63.0631H299.032L301.626 62.0655L305.018 61.6664L308.61 58.2743L313 57.0771L315.793 54.8822L317.788 50.8914L319.983 48.2975L322.577 47.6989L324.573 49.2952L323.974 51.4901L322.178 55.2812L323.575 57.0771L327.566 58.2743L330.16 57.4761V55.2812L331.357 54.8822L332.953 56.678L335.747 57.0771L339.937 60.6687L346.522 61.0678L352.907 63.8613H358.095L365.078 63.0631L371.264 63.8613L376.053 65.6571L377.051 63.4622L391.218 51.4901L392.814 48.497L392.215 38.3207L393.413 34.729L398.002 32.5341L404.587 31.9355L407.779 30.1397L408.777 25.1513V18.7662L407.779 12.1815L406.382 8.3903L399 7.59215L395.807 6.99355L394.211 4.00051L391.617 3.4019L386.828 4.59912L384.234 4.00051L383.037 1.40654L381.44 0.608398L380.243 1.80561V9.78705L382.438 16.7708L383.835 25.1513L380.243 29.142L375.255 30.1397L368.471 29.142H361.487L345.125 33.9309H335.348L326.568 30.5388H318.786L312.002 24.7522H308.61L301.027 26.149L296.438 23.3555L288.457 16.7708L281.872 14.3764L275.487 13.9773L269.9 15.3741L259.125 22.1583L251.343 21.3601L247.552 25.3508C228.995 26.3485 233.983 28.9427 222.011 29.5411C210.039 30.1395 204.137 26.7475 193.478 31.3369C182.818 35.9263 179.311 43.3089 173.724 45.1048C168.137 46.9006 164.545 45.1047 164.545 45.1047C152.772 38.1209 145.389 33.9308 136.809 45.1048Z" stroke="#5C5C5C"/>
<path d="M5.51379 128.91H2.52075L1.32353 130.506L0.525391 132.701L1.32353 135.494L3.51843 137.889L5.91286 139.286L8.10775 140.682L9.70404 142.279L11.1008 144.274L11.8989 146.868L13.6948 148.464L15.291 150.06L26.6646 158.042H27.8618L28.8595 157.044L28.6599 152.654L28.4604 151.058L27.6623 150.659L26.4651 151.058H23.6716L21.2771 150.06L18.6832 148.065L15.291 144.074L13.6948 141.48L11.8989 138.687L10.1031 135.095L8.50683 132.102L7.30961 130.107L5.51379 128.91Z" stroke="#5C5C5C"/>
<path d="M224.804 242.646L223.009 244.442L221.013 244.841L220.016 245.439L219.417 246.437V247.834L220.614 248.632L221.811 249.23H223.009L225.204 248.632L226.999 247.834L227.997 246.437L228.795 244.841L227.997 243.444L226.401 242.646H224.804Z" stroke="#5C5C5C"/>
<path d="M302.025 239.453L300.229 240.052L298.034 241.05L296.837 242.247L296.239 244.242L296.837 246.038L309.607 257.611L310.605 258.01H311.603L312.8 257.013L313.399 255.017L312.8 253.022L312.002 251.625L310.605 250.827L309.607 250.029L309.208 249.43V248.432L309.607 247.834L310.605 247.435L311.204 246.437V246.038L310.605 245.24L308.809 245.639H307.213H305.218L304.419 244.242V241.848L303.222 240.052L302.025 239.453Z" stroke="#5C5C5C"/>
<path d="M317.389 259.008L314.995 259.407L312.8 260.405L311.603 261.402V262.799L312.002 264.395L313.199 264.994L316.591 264.794L317.988 266.191L318.786 267.588L320.382 269.184L321.38 270.381L322.777 270.781L324.972 270.581L326.768 269.982L328.763 268.586L329.96 266.989L330.359 265.193V263.398L329.361 262.001H328.364H326.768L325.57 262.799L324.972 263.398L323.774 264.794L322.976 264.395L322.178 263.797L321.58 262.799L320.382 262.001L319.185 260.006L317.389 259.008Z" stroke="#5C5C5C"/>
<path d="M339.737 269.982L336.146 269.184L334.549 269.982L334.35 272.177L333.751 273.175L332.754 274.372V275.769L333.951 276.368H335.747L337.542 275.37L339.737 274.372L341.733 273.175V270.781L339.737 269.982Z" stroke="#5C5C5C"/>
<path d="M310.605 271.579L308.809 270.381L308.61 269.982H307.612L307.213 270.581V271.579L306.614 272.576L305.218 273.175L304.419 274.372V275.37L305.617 276.368L307.213 277.365L309.208 277.764L311.204 276.767L311.603 275.17V273.175L310.605 271.579Z" stroke="#5C5C5C"/>
<path d="M468.038 70.646H464.247L461.453 72.2423L460.057 73.0404L459.458 75.2353L460.057 76.8316H462.252L463.848 77.6298V78.6274L463.249 80.4233L463.848 82.0195L465.444 82.6181H467.44L469.435 81.4209L471.031 80.4233L472.428 78.6274L474.623 77.6298L475.82 75.8339V73.8386L473.625 72.2423C472.96 72.1093 471.51 71.8033 471.031 71.6437L468.038 70.646Z" stroke="#5C5C5C"/>
<path d="M481.607 80.8223C480.941 80.5563 479.492 79.9843 479.013 79.8246L476.419 79.226H474.623L473.226 79.8246L471.829 81.4209L472.428 83.8154L476.419 85.0126L479.412 86.4093V89.4024L479.013 91.5973L477.217 93.9917L475.421 95.3884L473.226 94.5903L471.829 93.5926L469.235 92.1959L467.04 93.5926L465.045 94.5903H462.252L447.486 89.0033L440.502 87.2075H432.122L426.136 87.8061L420.549 89.4024L414.762 92.3954L409.574 98.1819L406.382 101.375H401.593L399.597 102.372L398.001 105.964L396.405 110.354L393.212 113.347L390.419 114.743H387.426H385.63H383.634L382.836 116.539V119.133L381.24 120.33L380.043 121.727V124.122L381.24 125.718L382.836 126.516L383.235 127.514L382.836 128.91L381.24 131.305L382.038 133.101L383.235 134.897V136.293L382.038 138.488L380.043 140.883L378.846 141.681L378.447 143.477V145.272L381.24 146.869L386.827 147.268L390.419 146.869L393.212 145.871L395.008 144.075L397.003 143.078L398.001 143.477L399.597 144.873H401.593L403.189 144.474L405.384 143.078L408.377 142.678L410.572 141.282L413.764 139.685L417.356 140.284L418.553 141.681L419.75 143.078L421.347 142.678L423.143 140.883L424.14 139.685C424.872 139.619 426.335 139.366 426.335 138.887V137.291C425.803 136.493 424.699 134.897 424.539 134.897C424.38 134.897 421.812 133.699 420.549 133.101H414.762C414.163 133.101 408.576 134.098 408.377 134.098C408.217 134.098 404.187 134.631 402.191 134.897L398.6 132.702L398.001 129.31L399.597 124.92L405.384 119.931L409.973 115.542L411.569 111.95L413.166 105.166L418.154 98.1819L422.145 95.3884L428.331 94.5903L435.514 96.5857L444.094 100.377L448.284 101.774H461.453L465.444 105.964L468.294 107.361L471.031 107.959L474.024 107.361L476.419 105.964L479.412 104.368L481.008 103.569H482.604L483.003 102.572V101.375L483.801 99.9778L486.196 99.5787L487.792 98.9801L488.989 99.5787L489.987 101.774H491.384L493.978 99.5787V95.3884L492.98 91.5973C491.783 90.7991 489.149 93.6724 485.797 90.7991C482.445 87.9258 484.201 87.6065 486.196 87.6065H486.795L489.588 87.0079L491.783 85.8107L492.581 83.6158L491.783 81.4209L488.989 80.4233C487.526 80.5563 484.52 80.8223 484.201 80.8223H481.607Z" stroke="#5C5C5C"/>
<path d="M146.535 104.706L149.3 86.3368L143.141 85.4097L143.088 85.7657C142.675 88.5068 142.152 90.8915 141.519 92.9199C140.888 94.9364 140.107 96.6209 139.175 97.9732C138.245 99.3137 137.113 100.345 135.779 101.066C134.458 101.777 132.895 102.204 131.09 102.344L129.591 95.857C130.634 95.7834 131.509 95.5693 132.218 95.2149C132.927 94.8604 133.523 94.2828 134.008 93.482C134.506 92.6712 134.935 91.5585 135.293 90.1442C135.652 88.7298 135.995 86.9309 136.324 84.7475L137.364 77.8413L157.477 80.8691L153.726 105.788L146.535 104.706ZM127.726 108.245L129.591 95.857L133.313 96.5265L135.488 96.3443L158.77 99.8491L156.846 112.629L150.011 111.6L150.949 105.37L135.499 103.045L134.561 109.274L127.726 108.245Z" fill="#412D24"/>
<path d="M168.142 116.427L175.38 91.1631L181.264 92.8487L180.758 94.6137C181.586 94.0769 182.553 93.7488 183.661 93.6293C184.781 93.5131 185.946 93.6285 187.157 93.9755C188.841 94.4581 190.242 95.2775 191.359 96.4338C192.49 97.5819 193.237 98.9818 193.6 100.634C193.978 102.277 193.886 104.08 193.325 106.041C192.935 107.402 192.349 108.595 191.569 109.62C190.8 110.648 189.888 111.479 188.833 112.112C187.78 112.735 186.631 113.13 185.385 113.297C184.154 113.456 182.88 113.347 181.565 112.97C180.723 112.729 179.949 112.382 179.242 111.93C178.535 111.478 177.911 110.912 177.369 110.232L175.029 118.4L168.142 116.427ZM182.109 106.76C182.766 106.948 183.396 106.972 183.998 106.833C184.614 106.685 185.15 106.383 185.606 105.926C186.061 105.47 186.396 104.867 186.611 104.117C186.825 103.367 186.855 102.677 186.699 102.045C186.554 101.417 186.258 100.883 185.81 100.443C185.377 99.9939 184.837 99.677 184.191 99.492C183.545 99.3069 182.914 99.2883 182.297 99.4362C181.695 99.5758 181.161 99.8722 180.694 100.325C180.239 100.781 179.904 101.384 179.689 102.134C179.474 102.884 179.439 103.573 179.584 104.201C179.728 104.829 180.017 105.368 180.45 105.816C180.898 106.257 181.451 106.571 182.109 106.76Z" fill="#412D24"/>
<path d="M210.632 123.038C208.69 122.238 207.151 121.155 206.013 119.791C204.875 118.426 204.185 116.889 203.942 115.179C203.71 113.475 203.974 111.701 204.733 109.86C205.286 108.517 206.025 107.387 206.948 106.47C207.887 105.546 208.95 104.855 210.138 104.397C211.338 103.944 212.611 103.736 213.959 103.772C215.318 103.813 216.702 104.124 218.111 104.705C219.686 105.354 220.97 106.208 221.962 107.265C222.965 108.328 223.66 109.523 224.047 110.851C224.439 112.167 224.502 113.556 224.237 115.018C223.977 116.468 223.361 117.914 222.39 119.357L209.909 114.212C209.766 114.686 209.79 115.163 209.981 115.644C210.183 116.13 210.526 116.589 211.009 117.022C211.497 117.444 212.102 117.803 212.823 118.1C213.877 118.535 214.909 118.818 215.919 118.948C216.93 119.079 217.994 119.064 219.112 118.902L219.232 124.091C218.561 124.269 217.722 124.338 216.712 124.298C215.703 124.259 214.661 124.128 213.585 123.905C212.504 123.693 211.52 123.404 210.632 123.038ZM212.125 110.064L217.916 112.451C218.163 111.852 218.109 111.259 217.754 110.671C217.399 110.083 216.812 109.62 215.991 109.282C215.147 108.935 214.365 108.833 213.644 108.977C212.934 109.125 212.427 109.488 212.125 110.064Z" fill="#412D24"/>
<path d="M230.299 131.144L239.225 114.689L248.37 119.649C250.384 120.742 251.746 121.931 252.455 123.217C253.18 124.498 253.156 125.85 252.384 127.274C251.926 128.118 251.322 128.691 250.571 128.993C249.83 129.302 249.008 129.408 248.103 129.314C247.215 129.214 246.313 128.978 245.397 128.603L246.074 127.128C247.721 128.144 248.844 129.333 249.443 130.696C250.058 132.053 249.999 133.407 249.267 134.757C248.683 135.833 247.919 136.613 246.974 137.097C246.029 137.581 244.928 137.748 243.671 137.599C242.424 137.455 241.047 136.974 239.539 136.156L230.299 131.144ZM238.542 130.291L240.947 131.596C241.475 131.882 241.925 131.996 242.297 131.939C242.675 131.871 242.959 131.663 243.148 131.315C243.319 130.999 243.333 130.671 243.188 130.334C243.055 130.002 242.708 129.684 242.149 129.381L239.238 127.802L241.332 123.941L243.832 125.297C244.338 125.572 244.774 125.699 245.14 125.679C245.511 125.648 245.792 125.459 245.98 125.111C246.169 124.763 246.168 124.414 245.975 124.064C245.799 123.709 245.474 123.403 244.999 123.145L243.005 122.064L238.542 130.291Z" fill="#412D24"/>
<path d="M256.755 146.035L267.463 130.68L273.369 134.798L269.683 140.084L274.407 143.379L278.093 138.093L283.999 142.212L273.291 157.567L267.385 153.448L271.195 147.985L266.47 144.69L262.66 150.153L256.755 146.035Z" fill="#412D24"/>
<path d="M282.891 164.864L294.109 161.206L292.822 165.779C291.804 164.883 291.021 163.884 290.473 162.78C289.935 161.684 289.702 160.576 289.774 159.458C289.854 158.33 290.318 157.284 291.166 156.32C292.1 155.256 293.148 154.555 294.308 154.216C295.468 153.878 296.685 153.901 297.96 154.287C299.235 154.672 300.503 155.419 301.765 156.528L309.067 162.944L296.711 177.006L291.599 172.515L300.724 162.131L299.21 160.8C298.75 160.396 298.281 160.184 297.804 160.164C297.336 160.151 296.927 160.344 296.579 160.74C296.246 161.119 296.09 161.533 296.11 161.982C296.14 162.439 296.348 162.838 296.736 163.179L298.9 165.08L295.834 168.569L294.779 167.642L288.679 169.949L282.891 164.864Z" fill="#412D24"/>
<path d="M305.442 185.184L316.983 182.734L315.22 187.145C314.302 186.147 313.629 185.07 313.201 183.914C312.782 182.767 312.667 181.642 312.858 180.537C313.057 179.424 313.629 178.433 314.574 177.564C315.616 176.605 316.731 176.019 317.921 175.805C319.11 175.591 320.318 175.743 321.545 176.261C322.772 176.779 323.954 177.657 325.092 178.893L331.673 186.046L317.898 198.721L313.291 193.714L323.463 184.354L322.098 182.87C321.684 182.42 321.24 182.16 320.768 182.089C320.303 182.027 319.877 182.175 319.488 182.532C319.117 182.874 318.918 183.269 318.891 183.718C318.872 184.176 319.037 184.594 319.387 184.974L321.337 187.093L317.919 190.238L316.969 189.205L310.658 190.853L305.442 185.184Z" fill="#412D24"/>
<path d="M335.686 221.089L356.616 207.055L365.638 220.51L360.136 224.199L355.164 216.784L339.736 227.129L335.686 221.089Z" fill="#412D24"/>
<path d="M344.031 247.748L367.309 235.551L370.149 240.972L368.523 241.824C369.483 242.053 370.388 242.526 371.239 243.246C372.096 243.975 372.816 244.898 373.401 246.014C374.214 247.566 374.588 249.145 374.522 250.752C374.472 252.363 373.974 253.87 373.03 255.272C372.101 256.68 370.733 257.858 368.926 258.804C367.672 259.462 366.405 259.861 365.125 260.004C363.85 260.157 362.619 260.07 361.432 259.744C360.256 259.412 359.177 258.853 358.196 258.066C357.231 257.285 356.431 256.288 355.796 255.076C355.39 254.301 355.106 253.501 354.945 252.677C354.785 251.854 354.763 251.011 354.881 250.15L347.356 254.094L344.031 247.748ZM360.666 251.184C360.983 251.79 361.4 252.262 361.916 252.601C362.449 252.945 363.037 253.125 363.682 253.139C364.326 253.154 364.994 252.98 365.685 252.618C366.376 252.256 366.896 251.801 367.245 251.252C367.6 250.714 367.782 250.131 367.791 249.503C367.817 248.879 367.674 248.27 367.362 247.675C367.05 247.08 366.628 246.61 366.095 246.266C365.579 245.927 364.996 245.745 364.346 245.72C363.702 245.705 363.034 245.879 362.343 246.241C361.652 246.603 361.129 247.053 360.775 247.591C360.42 248.129 360.23 248.71 360.204 249.333C360.194 249.961 360.348 250.578 360.666 251.184Z" fill="#412D24"/>
<path d="M368.569 283.058C367.808 281.101 367.529 279.239 367.731 277.474C367.933 275.709 368.569 274.149 369.639 272.793C370.713 271.449 372.178 270.416 374.035 269.694C375.388 269.168 376.715 268.923 378.016 268.958C379.333 269 380.567 269.292 381.718 269.836C382.874 270.391 383.903 271.169 384.807 272.17C385.715 273.181 386.446 274.398 386.998 275.818C387.615 277.406 387.883 278.924 387.802 280.372C387.725 281.831 387.34 283.159 386.647 284.355C385.964 285.547 385.003 286.552 383.762 287.369C382.533 288.181 381.061 288.734 379.347 289.027L374.456 276.444C374.015 276.667 373.687 277.013 373.47 277.484C373.258 277.965 373.162 278.53 373.183 279.179C373.214 279.823 373.371 280.509 373.654 281.236C374.067 282.299 374.575 283.241 375.177 284.062C375.78 284.884 376.526 285.643 377.415 286.34L373.742 290.008C373.15 289.646 372.521 289.086 371.853 288.328C371.185 287.571 370.561 286.726 369.979 285.793C369.387 284.864 368.916 283.953 368.569 283.058ZM378.988 275.185L381.257 281.023C381.861 280.788 382.253 280.34 382.434 279.678C382.614 279.015 382.543 278.27 382.222 277.443C381.891 276.592 381.425 275.956 380.823 275.534C380.226 275.122 379.614 275.006 378.988 275.185Z" fill="#412D24"/>
<path d="M376.413 302.855L394.538 298.172L396.339 305.143L383.652 308.421L384.913 313.301L397.6 310.023L399.401 316.994L381.276 321.677L376.413 302.855ZM375.688 321.634L380.916 320.283L380.556 318.889L385.993 317.484L387.993 325.222L377.327 327.978L375.688 321.634Z" fill="#412D24"/>
<path d="M384.981 338.945L403.545 336.534L404.426 343.317L395.715 344.448L405.293 349.993L406.132 356.455L387.568 358.865L386.687 352.082L395.541 350.933L385.82 345.406L384.981 338.945Z" fill="#412D24"/>
<path d="M388.639 370.95L398.893 376.786L394.645 378.912C394.621 377.556 394.834 376.304 395.282 375.156C395.731 374.02 396.393 373.103 397.269 372.403C398.157 371.704 399.243 371.343 400.527 371.321C401.943 371.297 403.166 371.6 404.197 372.23C405.228 372.861 406.03 373.777 406.603 374.979C407.176 376.182 407.476 377.623 407.505 379.302L407.673 389.021L388.955 389.343L388.838 382.54L402.66 382.302L402.626 380.286C402.615 379.675 402.457 379.185 402.15 378.818C401.844 378.464 401.427 378.291 400.899 378.3C400.395 378.309 399.984 378.472 399.665 378.789C399.347 379.119 399.192 379.541 399.201 380.057L399.251 382.937L394.607 383.017L394.583 381.613L388.771 378.652L388.639 370.95Z" fill="#412D24"/>
</svg>
