<svg width="556" height="556" viewBox="0 0 556 556" fill="none" xmlns="http://www.w3.org/2000/svg">
<path d="M476.857 288.128L477.81 285.273L466.396 279.095L459.978 271.25L447.619 255.082L434.07 238.202L424.798 230.357L408.629 221.328L384.369 217.536L355.588 217.79L339.417 211.614L321.35 193.547L310.661 167.151L291.405 147.895L269.534 126.024C266.285 124.044 259.809 120.048 259.902 119.908C259.995 119.768 230.371 115.543 215.547 113.448L172.733 112.521L152.278 111.581L135.87 102.789L115.411 108.509L100.896 118.745L100.416 125.406L105.407 133.252L97.3166 138.965L91.8465 137.779L76.3852 138.501L60.4461 143.03L43.0768 152.792L27.1313 168.737L24.7495 174.447L31.1648 186.575L39.4815 201.555L50.6533 215.107L63.7282 228.182L72.522 240.783L79.8843 260.997L85.1142 266.227L93.9101 275.023L105.563 278.584L116.499 289.52L115.781 296.894L121.965 297.366L127.913 294.271L130.051 298.789L134.807 301.165L137.183 305.921L151.218 303.772L154.788 300.202L159.783 299.486L165.017 298.056L168.345 301.384L182.614 306.133L187.846 307.557L187.131 310.65L184.513 313.268C184.196 312.951 182.849 312.46 179.994 313.032C177.139 313.605 177.059 315.016 177.376 315.65L180.467 317.313L186.653 315.407L196.169 312.547L198.547 313.498L202.351 315.398L210.2 317.059L212.576 320.863L243.969 328.933L250.626 335.589L259.663 337.011L263.705 341.053L269.889 341.525L273.455 345.091L306.275 353.16L311.505 358.39L309.125 360.77L304.843 361.248L287.007 355.787L272.499 352.703L262.748 351.043L261.793 357.704L265.833 363.648L271.776 369.591L273.676 373.872L275.576 379.104L278.903 385.762L279.852 390.043L278.899 391.946L276.045 391.948L272.72 383.387L269.631 377.918L264.162 374.829L262.261 370.548L260.837 365.792L255.605 363.892L261.544 377.446L273.663 397.182L288.402 411.921L291.254 416.201L291.252 420.958L293.865 425.952L295.526 434.276L306.699 445.449L308.837 449.491L308.597 453.059L305.743 452.585L301.224 453.301L300.98 464.005L303.115 473.756L309.291 488.5L329.258 511.323L332.109 518.458L335.432 531.3L353.98 540.328L358.496 544.845L361.111 547.46L363.489 549.837L371.341 544.362L377.292 536.034L379.198 531.276L377.059 527.709L378.728 521.286L381.823 516.289L381.825 512.483L383.729 510.579L383.017 507.012L380.401 507.251L377.783 509.869L377.781 512.248L377.779 516.529L375.875 518.433L373.733 520.575L370.405 517.247L369.456 512.014L368.748 503.214L363.278 502.028L364.232 496.319L361.378 495.844L353.058 487.524L349.73 484.196L344.973 483.723L341.169 479.919L312.668 405.247L315.763 399.299L322.189 392.873L330.041 387.874L332.421 385.494L337.892 384.777L343.126 383.347L344.554 381.919L344.794 377.875L346.46 376.209L346.696 379.777L350.026 379.775L352.168 377.633L358.352 379.057L360.494 376.915L362.16 375.249L356.69 373.112L358.356 371.446L360.498 369.304L363.59 370.015L363.83 365.972L373.113 353.36L371.212 351.458L367.168 350.747L367.408 347.655L369.074 345.989L372.166 345.749L374.075 335.282L377.643 334.566L381.689 330.521L387.875 327.187L401.913 320.757L405.959 316.711L409.05 317.423L413.094 316.707L418.328 315.277L426.894 310.515L432.842 307.895L438.078 302.659L442.836 300.278L446.88 300.514L451.161 301.463L454.254 298.369L466.15 293.605L469.72 290.035L476.857 288.128Z" stroke="#5C5C5C"/>
<path d="M101.127 186.66L95.588 171.104L90.3729 172.962L90.4802 173.263C91.3068 175.584 91.8976 177.672 92.2525 179.528C92.6039 181.373 92.6982 183.021 92.5354 184.471C92.3691 185.912 91.9144 187.195 91.1715 188.32C90.435 189.431 89.3891 190.421 88.0336 191.289L84.1372 186.834C84.9233 186.338 85.5197 185.803 85.9264 185.228C86.333 184.653 86.5582 183.95 86.602 183.119C86.6523 182.275 86.5212 181.223 86.2088 179.964C85.8964 178.706 85.411 177.152 84.7526 175.303L82.6699 169.455L99.7021 163.389L107.217 184.491L101.127 186.66ZM87.8731 197.324L84.1372 186.834L87.3347 185.797L88.963 184.741L108.678 177.72L112.532 188.543L106.744 190.604L104.866 185.328L91.7824 189.988L93.6611 195.263L87.8731 197.324Z" fill="#412D24"/>
<path d="M119.443 188.24L115.615 165.196L120.982 164.305L121.249 165.915C121.709 165.168 122.361 164.535 123.205 164.016C124.059 163.496 125.038 163.144 126.143 162.961C127.68 162.706 129.117 162.829 130.454 163.331C131.801 163.821 132.935 164.66 133.857 165.848C134.787 167.023 135.401 168.505 135.698 170.294C135.904 171.536 135.89 172.717 135.654 173.837C135.429 174.956 135.014 175.971 134.408 176.883C133.801 177.784 133.029 178.539 132.092 179.149C131.164 179.746 130.101 180.145 128.901 180.344C128.133 180.471 127.379 180.489 126.639 180.395C125.899 180.302 125.182 180.086 124.487 179.747L125.725 187.197L119.443 188.24ZM126.968 175.15C127.568 175.051 128.082 174.83 128.512 174.488C128.951 174.134 129.266 173.687 129.457 173.147C129.649 172.607 129.688 171.995 129.574 171.311C129.46 170.627 129.22 170.062 128.854 169.614C128.499 169.165 128.057 168.849 127.529 168.667C127.01 168.472 126.456 168.423 125.867 168.521C125.277 168.619 124.764 168.845 124.325 169.199C123.895 169.541 123.579 169.982 123.377 170.524C123.186 171.064 123.147 171.676 123.261 172.36C123.374 173.044 123.609 173.611 123.965 174.06C124.32 174.509 124.758 174.831 125.277 175.026C125.804 175.208 126.368 175.25 126.968 175.15Z" fill="#412D24"/>
<path d="M152.705 178.382C150.838 178.402 149.202 178.051 147.797 177.33C146.392 176.609 145.293 175.592 144.5 174.278C143.718 172.963 143.317 171.421 143.298 169.65C143.284 168.36 143.496 167.179 143.932 166.107C144.379 165.025 145.009 164.09 145.822 163.303C146.646 162.515 147.615 161.902 148.731 161.463C149.857 161.025 151.097 160.798 152.451 160.783C153.966 160.767 155.313 161.019 156.492 161.54C157.681 162.06 158.665 162.797 159.444 163.748C160.222 164.689 160.757 165.804 161.048 167.091C161.339 168.368 161.338 169.766 161.045 171.283L149.046 171.413C149.093 171.849 149.278 172.231 149.602 172.559C149.936 172.886 150.376 173.142 150.922 173.328C151.468 173.504 152.088 173.588 152.781 173.58C153.794 173.57 154.737 173.442 155.609 173.198C156.481 172.954 157.346 172.571 158.205 172.05L160.106 176.254C159.62 176.632 158.957 176.981 158.117 177.299C157.278 177.618 156.379 177.873 155.421 178.064C154.464 178.267 153.558 178.372 152.705 178.382ZM149.417 167.248L154.984 167.188C154.978 166.612 154.728 166.146 154.233 165.788C153.739 165.431 153.097 165.257 152.308 165.265C151.497 165.274 150.822 165.462 150.282 165.831C149.752 166.199 149.464 166.672 149.417 167.248Z" fill="#412D24"/>
<path d="M169.195 178.358L171.471 161.874L180.632 163.139C182.65 163.418 184.155 163.981 185.147 164.828C186.151 165.667 186.555 166.799 186.358 168.226C186.241 169.071 185.918 169.737 185.388 170.224C184.868 170.712 184.217 171.058 183.435 171.263C182.665 171.458 181.841 171.543 180.961 171.519L181.063 170.079C182.751 170.409 184.057 171.047 184.982 171.993C185.919 172.93 186.294 174.075 186.107 175.427C185.958 176.505 185.566 177.393 184.932 178.092C184.297 178.79 183.433 179.274 182.341 179.543C181.259 179.813 179.962 179.844 178.451 179.636L169.195 178.358ZM175.787 175.069L178.196 175.401C178.724 175.474 179.135 175.428 179.426 175.264C179.72 175.089 179.891 174.828 179.939 174.479C179.982 174.162 179.891 173.885 179.665 173.65C179.45 173.415 179.062 173.26 178.502 173.182L175.586 172.78L176.12 168.912L178.624 169.258C179.131 169.328 179.534 169.297 179.832 169.166C180.132 169.025 180.305 168.779 180.354 168.431C180.402 168.082 180.291 167.792 180.021 167.561C179.764 167.321 179.397 167.168 178.922 167.102L176.925 166.827L175.787 175.069Z" fill="#412D24"/>
<path d="M193.429 182.291L198.204 166.35L204.335 168.187L202.691 173.674L207.596 175.143L209.239 169.656L215.37 171.492L210.596 187.433L204.465 185.596L206.164 179.925L201.259 178.456L199.56 184.127L193.429 182.291Z" fill="#412D24"/>
<path d="M218.641 190.554L225.891 175.577L231.364 178.225L227.962 185.253L236.75 180.832L241.963 183.356L234.714 198.334L229.241 195.685L232.698 188.542L223.855 193.078L218.641 190.554Z" fill="#412D24"/>
<path d="M242.217 202.723L251.757 189.089L256.739 192.575L252.262 198.973L261.641 196.006L266.387 199.327L256.847 212.96L251.865 209.475L256.415 202.972L246.963 206.044L242.217 202.723ZM260.173 192.635C259.002 191.815 258.13 190.893 257.559 189.868C256.987 188.843 256.728 187.79 256.782 186.708C256.842 185.618 257.233 184.576 257.953 183.583L262.148 186.518C261.749 187.033 261.576 187.55 261.63 188.069C261.689 188.58 261.968 189.009 262.466 189.358C262.964 189.706 263.463 189.821 263.963 189.702C264.469 189.574 264.895 189.235 265.242 188.683L269.437 191.619C268.764 192.618 267.92 193.33 266.908 193.754C265.901 194.17 264.811 194.286 263.637 194.102C262.472 193.925 261.318 193.436 260.173 192.635Z" fill="#412D24"/>
<path d="M276.543 231.168L293.72 216.79L304.38 229.525L300.11 233.099L293.599 225.32L291.366 227.189L296.707 233.569L292.805 236.835L287.465 230.455L285.011 232.509L291.604 240.386L287.286 244.001L276.543 231.168Z" fill="#412D24"/>
<path d="M292.065 250.94L306.156 242.089L312.403 252.034L308.175 254.69L305.333 250.164L295.469 256.36L292.065 250.94Z" fill="#412D24"/>
<path d="M302.187 267.722L317.368 260.91L319.858 266.457L312.734 269.654L322.307 271.917L324.679 277.201L309.497 284.013L307.008 278.466L314.248 275.217L304.558 273.007L302.187 267.722Z" fill="#412D24"/>
<path d="M312.423 292.2L328.495 287.89L333.137 305.198L317.065 309.509L315.407 303.327L326.658 300.31L325.331 295.365L314.081 298.382L312.423 292.2Z" fill="#412D24"/>
<path d="M318.979 326.085C318.778 324.23 318.967 322.568 319.548 321.099C320.129 319.63 321.035 318.437 322.266 317.521C323.498 316.614 324.994 316.066 326.754 315.874C328.037 315.735 329.233 315.83 330.342 316.161C331.463 316.5 332.454 317.036 333.317 317.769C334.181 318.512 334.886 319.417 335.431 320.485C335.977 321.563 336.323 322.775 336.47 324.122C336.633 325.627 336.513 326.992 336.11 328.216C335.707 329.451 335.07 330.502 334.199 331.369C333.338 332.235 332.281 332.876 331.028 333.291C329.785 333.705 328.394 333.84 326.855 333.696L325.559 321.766C325.129 321.855 324.767 322.077 324.473 322.431C324.18 322.795 323.967 323.258 323.835 323.82C323.714 324.38 323.69 325.005 323.765 325.694C323.875 326.702 324.093 327.628 324.421 328.472C324.749 329.316 325.214 330.14 325.816 330.944L321.817 333.245C321.393 332.797 320.981 332.172 320.583 331.367C320.184 330.563 319.843 329.693 319.559 328.758C319.265 327.825 319.071 326.934 318.979 326.085ZM329.74 321.73L330.341 327.266C330.914 327.203 331.354 326.909 331.661 326.382C331.969 325.855 332.08 325.199 331.995 324.414C331.907 323.609 331.654 322.955 331.235 322.453C330.817 321.962 330.318 321.721 329.74 321.73Z" fill="#412D24"/>
<path d="M320.448 345.559L332.09 345.918L332.224 341.568L337.214 341.722L336.748 356.819L331.758 356.665L331.892 352.315L320.25 351.955L320.448 345.559Z" fill="#412D24"/>
</svg>
