<svg width="71" height="71" viewBox="0 0 71 71" fill="none" xmlns="http://www.w3.org/2000/svg">
<path d="M3 68L18.2941 52.7059M18.2941 52.7059L25.9412 60.3529L35.5 50.7941M18.2941 52.7059L10.6471 45.0588L20.2059 35.5L27.8529 27.8529L41.2353 14.4706M35.5 50.7941L29.7647 45.0588M35.5 50.7941L46.9706 39.3235M41.2353 14.4706L48.8824 22.1176M41.2353 14.4706L37.4118 10.6471M56.5294 29.7647L48.8824 22.1176M56.5294 29.7647L60.3529 33.5882M56.5294 29.7647L46.9706 39.3235M48.8824 22.1176L62.2647 8.73529M46.9706 39.3235L41.2353 33.5882M62.2647 8.73529L68 14.4706M62.2647 8.73529L56.5294 3" stroke="#412D24" stroke-width="6" stroke-linecap="round" stroke-linejoin="round"/>
</svg>
