<svg width="67" height="67" viewBox="0 0 67 67" fill="none" xmlns="http://www.w3.org/2000/svg">
<path d="M62.2143 50.25V58.8308L50.25 46.8665V31.1071C50.2498 30.6629 50.1259 30.2275 49.8921 29.8496C49.6584 29.4718 49.3242 29.1665 48.9268 28.9679L35.8929 22.4474V9.15986L42.0808 15.3478L45.4643 11.9643L33.5 0L21.5357 11.9643L24.9192 15.3478L31.1071 9.15986V22.4498L18.0732 28.9655C17.6755 29.1643 17.341 29.47 17.1072 29.8483C16.8735 30.2265 16.7498 30.6625 16.75 31.1071V46.8665L4.78571 58.8308V50.25H0V67H16.75V62.2143H8.16921L19.6142 50.7692L32.4304 57.1773C32.7625 57.3433 33.1287 57.4297 33.5 57.4297C33.8713 57.4297 34.2375 57.3433 34.5696 57.1773L47.3857 50.7692L58.8308 62.2143H50.25V67H67V50.25H62.2143ZM31.1071 51.1641L21.5357 46.3784V34.9788L31.1071 39.7645V51.1641ZM33.5 35.6105L24.4933 31.1071L33.5 26.6038L42.5067 31.1071L33.5 35.6105ZM45.4643 46.3784L35.8929 51.1641V39.7645L45.4643 34.9788V46.3784Z" fill="#412D24"/>
</svg>
