<svg width="68" height="68" viewBox="0 0 68 68" fill="none" xmlns="http://www.w3.org/2000/svg">
<path d="M62.1653 5.82904C69.9457 13.6063 63.6395 32.522 48.0848 48.0798C32.5239 63.6375 13.6083 69.9406 5.83099 62.1633C-1.94947 54.3829 4.35679 35.4704 19.9146 19.9126C35.4723 4.35484 54.388 -1.94827 62.1653 5.82904ZM5.83099 5.82904C-1.94947 13.6095 4.35679 32.5251 19.9114 48.0798C35.4723 63.6375 54.388 69.9406 62.1653 62.1633C69.9457 54.386 63.6395 35.4704 48.0817 19.9126C32.5239 4.35484 13.6083 -1.94827 5.83099 5.82904Z" stroke="#412D24" stroke-width="5"/>
<path d="M41.873 33.9961C41.873 36.0846 41.0433 38.0876 39.5664 39.5645C38.0896 41.0413 36.0866 41.871 33.998 41.871C31.9094 41.871 29.9064 41.0413 28.4296 39.5645C26.9527 38.0876 26.123 36.0846 26.123 33.9961C26.123 31.9075 26.9527 29.9045 28.4296 28.4276C29.9064 26.9508 31.9094 26.1211 33.998 26.1211C36.0866 26.1211 38.0896 26.9508 39.5664 28.4276C41.0433 29.9045 41.873 31.9075 41.873 33.9961Z" stroke="#412D24" stroke-width="5"/>
</svg>
