<svg width="52" height="68" viewBox="0 0 52 68" fill="none" xmlns="http://www.w3.org/2000/svg">
<path d="M13 15.6923C13 14.9987 13.2739 14.3334 13.7615 13.843C14.2491 13.3525 14.9104 13.0769 15.6 13.0769H36.4C37.0896 13.0769 37.7509 13.3525 38.2385 13.843C38.7261 14.3334 39 14.9987 39 15.6923C39 16.386 38.7261 17.0512 38.2385 17.5417C37.7509 18.0321 37.0896 18.3077 36.4 18.3077H15.6C14.9104 18.3077 14.2491 18.0321 13.7615 17.5417C13.2739 17.0512 13 16.386 13 15.6923ZM15.6 28.7692H36.4C37.0896 28.7692 37.7509 28.4937 38.2385 28.0032C38.7261 27.5127 39 26.8475 39 26.1538C39 25.4602 38.7261 24.795 38.2385 24.3045C37.7509 23.814 37.0896 23.5385 36.4 23.5385H15.6C14.9104 23.5385 14.2491 23.814 13.7615 24.3045C13.2739 24.795 13 25.4602 13 26.1538C13 26.8475 13.2739 27.5127 13.7615 28.0032C14.2491 28.4937 14.9104 28.7692 15.6 28.7692ZM52 5.23077V62.7692C52 64.1565 51.4521 65.487 50.477 66.4679C49.5018 67.4489 48.1791 68 46.8 68H5.2C3.82087 68 2.49823 67.4489 1.52304 66.4679C0.547855 65.487 0 64.1565 0 62.7692V5.23077C0 3.84348 0.547855 2.51302 1.52304 1.53206C2.49823 0.551097 3.82087 0 5.2 0H46.8C48.1791 0 49.5018 0.551097 50.477 1.53206C51.4521 2.51302 52 3.84348 52 5.23077ZM46.8 5.23077H5.2V62.7692H46.8V5.23077ZM26 47.0769C25.2287 47.0769 24.4746 47.307 23.8333 47.7381C23.1919 48.1692 22.6921 48.7819 22.3969 49.4987C22.1017 50.2156 22.0245 51.0043 22.1749 51.7654C22.3254 52.5264 22.6969 53.2254 23.2423 53.774C23.7877 54.3227 24.4826 54.6963 25.2391 54.8477C25.9957 54.9991 26.7798 54.9214 27.4925 54.6244C28.2051 54.3275 28.8142 53.8247 29.2427 53.1795C29.6713 52.5344 29.9 51.7759 29.9 51C29.9 49.9595 29.4891 48.9617 28.7577 48.226C28.0263 47.4902 27.0343 47.0769 26 47.0769Z" fill="#412D24"/>
</svg>
